<?xml version="1.0" encoding="utf-8" standalone="no"?>
<!DOCTYPE svg PUBLIC "-//W3C//DTD SVG 1.1//EN"
  "http://www.w3.org/Graphics/SVG/1.1/DTD/svg11.dtd">
<svg xmlns:xlink="http://www.w3.org/1999/xlink" width="522.026719pt" height="136.08pt" viewBox="0 0 522.026719 136.08" xmlns="http://www.w3.org/2000/svg" version="1.1">
 <metadata>
  <rdf:RDF xmlns:dc="http://purl.org/dc/elements/1.1/" xmlns:cc="http://creativecommons.org/ns#" xmlns:rdf="http://www.w3.org/1999/02/22-rdf-syntax-ns#">
   <cc:Work>
    <dc:type rdf:resource="http://purl.org/dc/dcmitype/StillImage"/>
    <dc:date>2026-08-26T14:33:25.883227</dc:date>
    <dc:format>image/svg+xml</dc:format>
    <dc:creator>
     <cc:Agent>
      <dc:title>Matplotlib v3.11.1, https://matplotlib.org/</dc:title>
     </cc:Agent>
    </dc:creator>
   </cc:Work>
  </rdf:RDF>
 </metadata>
 <defs>
  <style type="text/css">*{stroke-linejoin: round; stroke-linecap: butt}</style>
 </defs>
 <g id="figure_1">
  <g id="patch_1">
   <path d="M 0 136.08 
L 522.026719 136.08 
L 522.026719 0 
L 0 0 
z
" style="fill: #ffffff"/>
  </g>
  <g id="axes_1">
   <g id="patch_2">
    <path d="M 23.861719 100.521719 
L 108.571719 100.521719 
L 108.571719 19.32 
L 23.861719 19.32 
z
" style="fill: #ffffff"/>
   </g>
   <g id="matplotlib.axis_1">
    <g id="xtick_1">
     <g id="line2d_1">
      <defs>
       <path id="mca08f1d630" d="M 0 0 
L 0 3.5 
" style="stroke: #000000; stroke-width: 0.8"/>
      </defs>
      <g>
       <use xlink:href="#mca08f1d630" x="23.861719" y="100.521719" style="stroke: #000000; stroke-width: 0.8"/>
      </g>
     </g>
     <g id="text_1">
      <text style="font-size: 11px; font-family: 'Helvetica', 'Arial', 'DejaVu Sans', sans-serif; text-anchor: middle" x="23.861719" y="115.771719" transform="rotate(-0 23.861719 115.771719)">0.0</text>
     </g>
    </g>
    <g id="xtick_2">
     <g id="line2d_2">
      <g>
       <use xlink:href="#mca08f1d630" x="66.216719" y="100.521719" style="stroke: #000000; stroke-width: 0.8"/>
      </g>
     </g>
     <g id="text_2">
      <text style="font-size: 11px; font-family: 'Helvetica', 'Arial', 'DejaVu Sans', sans-serif; text-anchor: middle" x="66.216719" y="115.771719" transform="rotate(-0 66.216719 115.771719)">0.5</text>
     </g>
    </g>
    <g id="xtick_3">
     <g id="line2d_3">
      <g>
       <use xlink:href="#mca08f1d630" x="108.571719" y="100.521719" style="stroke: #000000; stroke-width: 0.8"/>
      </g>
     </g>
     <g id="text_3">
      <text style="font-size: 11px; font-family: 'Helvetica', 'Arial', 'DejaVu Sans', sans-serif; text-anchor: middle" x="108.571719" y="115.771719" transform="rotate(-0 108.571719 115.771719)">1.0</text>
     </g>
    </g>
    <g id="text_4">
     <!-- $t$ -->
     <g transform="translate(64.016719 129.890859)">
      <text>
       <tspan x="0" y="-0.28125" style="font-style: oblique; font-size: 11px; font-family: 'DejaVu Sans'">t</tspan>
      </text>
     </g>
    </g>
   </g>
   <g id="matplotlib.axis_2">
    <g id="ytick_1">
     <g id="line2d_4">
      <defs>
       <path id="m6e03125534" d="M 0 0 
L -3.5 0 
" style="stroke: #000000; stroke-width: 0.8"/>
      </defs>
      <g>
       <use xlink:href="#m6e03125534" x="23.861719" y="95.225954" style="stroke: #000000; stroke-width: 0.8"/>
      </g>
     </g>
     <g id="text_5">
      <text style="font-size: 11px; font-family: 'Helvetica', 'Arial', 'DejaVu Sans', sans-serif; text-anchor: end" x="16.861719" y="99.350954" transform="rotate(-0 16.861719 99.350954)">−1</text>
     </g>
    </g>
    <g id="ytick_2">
     <g id="line2d_5">
      <g>
       <use xlink:href="#m6e03125534" x="23.861719" y="59.920859" style="stroke: #000000; stroke-width: 0.8"/>
      </g>
     </g>
     <g id="text_6">
      <text style="font-size: 11px; font-family: 'Helvetica', 'Arial', 'DejaVu Sans', sans-serif; text-anchor: end" x="16.861719" y="64.045859" transform="rotate(-0 16.861719 64.045859)">0</text>
     </g>
    </g>
    <g id="ytick_3">
     <g id="line2d_6">
      <g>
       <use xlink:href="#m6e03125534" x="23.861719" y="24.615764" style="stroke: #000000; stroke-width: 0.8"/>
      </g>
     </g>
     <g id="text_7">
      <text style="font-size: 11px; font-family: 'Helvetica', 'Arial', 'DejaVu Sans', sans-serif; text-anchor: end" x="16.861719" y="28.740764" transform="rotate(-0 16.861719 28.740764)">1</text>
     </g>
    </g>
   </g>
   <g id="line2d_7">
    <path d="M 23.861719 59.920859 
L 45.102751 59.814944 
L 66.212483 24.622825 
L 66.326842 60.104446 
L 87.389983 95.218893 
L 87.504342 45.798821 
L 108.571719 45.798821 
L 108.571719 45.798821 
" clip-path="url(#p97813b79f7)" style="fill: none; stroke: #d95319; stroke-linecap: square"/>
   </g>
   <g id="patch_3">
    <path d="M 23.861719 100.521719 
L 23.861719 19.32 
" style="fill: none; stroke: #000000; stroke-width: 0.9; stroke-linejoin: miter; stroke-linecap: square"/>
   </g>
   <g id="patch_4">
    <path d="M 23.861719 100.521719 
L 108.571719 100.521719 
" style="fill: none; stroke: #000000; stroke-width: 0.9; stroke-linejoin: miter; stroke-linecap: square"/>
   </g>
   <g id="text_8">
    <text style="font-size: 12px; font-family: 'Helvetica', 'Arial', 'DejaVu Sans', sans-serif; text-anchor: middle" x="66.216719" y="13.32" transform="rotate(-0 66.216719 13.32)">Message</text>
   </g>
  </g>
  <g id="axes_2">
   <g id="patch_5">
    <path d="M 157.691719 100.521719 
L 242.401719 100.521719 
L 242.401719 19.32 
L 157.691719 19.32 
z
" style="fill: #ffffff"/>
   </g>
   <g id="matplotlib.axis_3">
    <g id="xtick_4">
     <g id="line2d_8">
      <g>
       <use xlink:href="#mca08f1d630" x="157.691719" y="100.521719" style="stroke: #000000; stroke-width: 0.8"/>
      </g>
     </g>
     <g id="text_9">
      <text style="font-size: 11px; font-family: 'Helvetica', 'Arial', 'DejaVu Sans', sans-serif; text-anchor: middle" x="157.691719" y="115.771719" transform="rotate(-0 157.691719 115.771719)">0.0</text>
     </g>
    </g>
    <g id="xtick_5">
     <g id="line2d_9">
      <g>
       <use xlink:href="#mca08f1d630" x="200.046719" y="100.521719" style="stroke: #000000; stroke-width: 0.8"/>
      </g>
     </g>
     <g id="text_10">
      <text style="font-size: 11px; font-family: 'Helvetica', 'Arial', 'DejaVu Sans', sans-serif; text-anchor: middle" x="200.046719" y="115.771719" transform="rotate(-0 200.046719 115.771719)">0.5</text>
     </g>
    </g>
    <g id="xtick_6">
     <g id="line2d_10">
      <g>
       <use xlink:href="#mca08f1d630" x="242.401719" y="100.521719" style="stroke: #000000; stroke-width: 0.8"/>
      </g>
     </g>
     <g id="text_11">
      <text style="font-size: 11px; font-family: 'Helvetica', 'Arial', 'DejaVu Sans', sans-serif; text-anchor: middle" x="242.401719" y="115.771719" transform="rotate(-0 242.401719 115.771719)">1.0</text>
     </g>
    </g>
    <g id="text_12">
     <!-- $t$ -->
     <g transform="translate(197.846719 129.890859)">
      <text>
       <tspan x="0" y="-0.28125" style="font-style: oblique; font-size: 11px; font-family: 'DejaVu Sans'">t</tspan>
      </text>
     </g>
    </g>
   </g>
   <g id="matplotlib.axis_4">
    <g id="ytick_4">
     <g id="line2d_11">
      <g>
       <use xlink:href="#m6e03125534" x="157.691719" y="95.225954" style="stroke: #000000; stroke-width: 0.8"/>
      </g>
     </g>
     <g id="text_13">
      <text style="font-size: 11px; font-family: 'Helvetica', 'Arial', 'DejaVu Sans', sans-serif; text-anchor: end" x="150.691719" y="99.350954" transform="rotate(-0 150.691719 99.350954)">−1</text>
     </g>
    </g>
    <g id="ytick_5">
     <g id="line2d_12">
      <g>
       <use xlink:href="#m6e03125534" x="157.691719" y="59.920859" style="stroke: #000000; stroke-width: 0.8"/>
      </g>
     </g>
     <g id="text_14">
      <text style="font-size: 11px; font-family: 'Helvetica', 'Arial', 'DejaVu Sans', sans-serif; text-anchor: end" x="150.691719" y="64.045859" transform="rotate(-0 150.691719 64.045859)">0</text>
     </g>
    </g>
    <g id="ytick_6">
     <g id="line2d_13">
      <g>
       <use xlink:href="#m6e03125534" x="157.691719" y="24.615764" style="stroke: #000000; stroke-width: 0.8"/>
      </g>
     </g>
     <g id="text_15">
      <text style="font-size: 11px; font-family: 'Helvetica', 'Arial', 'DejaVu Sans', sans-serif; text-anchor: end" x="150.691719" y="28.740764" transform="rotate(-0 150.691719 28.740764)">1</text>
     </g>
    </g>
   </g>
   <g id="line2d_14">
    <path d="M 157.691719 59.920859 
L 178.949693 59.809899 
L 179.030168 59.822085 
L 179.055581 59.862643 
L 179.229236 60.45563 
L 179.335124 60.659556 
L 179.381714 60.595955 
L 179.496073 59.986477 
L 179.737496 58.491172 
L 179.784087 58.584334 
L 179.89421 59.495906 
L 180.152575 62.050853 
L 180.203401 61.902655 
L 180.31776 60.521413 
L 180.576125 57.087898 
L 180.61848 57.244503 
L 180.728603 58.870844 
L 180.99544 63.458496 
L 181.04203 63.245244 
L 181.156389 61.099126 
L 181.41899 55.678514 
L 181.461345 55.902976 
L 181.571468 58.262484 
L 181.838304 64.868191 
L 181.884895 64.59526 
L 181.995018 61.839168 
L 182.261854 54.267774 
L 182.308445 54.589942 
L 182.422803 57.91411 
L 182.685404 66.279698 
L 182.727759 65.973158 
L 182.833647 62.734883 
L 183.108954 52.856267 
L 183.155545 53.276908 
L 183.269903 57.435743 
L 183.532504 67.691205 
L 183.570624 67.374985 
L 183.672276 63.778355 
L 183.956054 51.44476 
L 184.00688 52.060276 
L 184.12971 57.739902 
L 184.379604 69.102712 
L 184.413488 68.796733 
L 184.510905 64.960459 
L 184.803154 50.033253 
L 184.858216 50.886812 
L 184.989516 58.324732 
L 185.226704 70.514219 
L 185.256353 70.234349 
L 185.345298 66.537987 
L 185.650254 48.621746 
L 185.713787 49.921668 
L 185.862029 60.287038 
L 186.073804 71.925726 
L 186.103453 71.602186 
L 186.192398 67.403536 
L 186.497354 47.210239 
L 186.560887 48.684145 
L 186.709129 60.331396 
L 186.920904 73.337233 
L 186.950553 72.970023 
L 187.043734 67.93106 
L 187.344454 45.798732 
L 187.403751 47.24366 
L 187.547758 59.466408 
L 187.763769 74.748999 
L 187.793417 74.440126 
L 187.878127 69.852962 
L 188.187319 44.386618 
L 188.263558 46.697553 
L 188.437213 64.371002 
L 188.610869 76.161203 
L 188.644753 75.705696 
L 188.737934 69.591205 
L 189.034419 42.974414 
L 189.097951 44.727095 
L 189.241958 59.377691 
L 189.457969 77.573407 
L 189.487617 77.196513 
L 189.572327 71.720776 
L 189.881519 41.56221 
L 189.957758 44.312826 
L 190.131413 65.158987 
L 190.305069 78.985611 
L 190.338953 78.44137 
L 190.432134 71.25135 
L 190.728619 40.150006 
L 190.792151 42.210529 
L 190.936158 59.288974 
L 191.152169 80.397815 
L 191.181817 79.9529 
L 191.266527 73.58859 
L 191.575719 38.737802 
L 191.647722 41.584391 
L 191.812907 63.964262 
L 191.999269 81.810018 
L 192.033153 81.177044 
L 192.126334 72.911495 
L 192.422819 37.325599 
L 192.486351 39.693963 
L 192.630358 59.200257 
L 192.846369 83.222222 
L 192.876017 82.709287 
L 192.960727 75.456405 
L 193.269919 35.913395 
L 193.341922 39.153304 
L 193.507107 64.493503 
L 193.693469 84.634426 
L 193.727353 83.912717 
L 193.820534 74.57164 
L 194.117019 34.501191 
L 194.176316 36.83101 
L 194.311852 56.694221 
L 194.540569 86.04663 
L 194.570217 85.465673 
L 194.654927 77.324219 
L 194.964119 33.088987 
L 195.036122 36.722218 
L 195.201307 65.022745 
L 195.387669 87.458834 
L 195.421553 86.648391 
L 195.514734 76.231785 
L 195.811219 31.676783 
L 195.870516 34.275409 
L 196.006052 56.340229 
L 196.234769 88.871037 
L 196.264417 88.22206 
L 196.353363 78.500421 
L 196.658319 30.264579 
L 196.726087 33.833861 
L 196.8828 62.74698 
L 197.081869 90.283241 
L 197.111517 89.600253 
L 197.200463 79.400594 
L 197.505419 28.852376 
L 197.573187 32.596338 
L 197.7299 62.879881 
L 197.928969 91.695445 
L 197.958617 90.978447 
L 198.047563 80.300767 
L 198.352519 27.440172 
L 198.420287 31.358814 
L 198.577 63.012781 
L 198.776069 93.107649 
L 198.805717 92.35664 
L 198.894663 81.200939 
L 199.199619 26.027968 
L 199.267387 30.12129 
L 199.4241 63.145681 
L 199.623169 94.519853 
L 199.652817 93.734834 
L 199.741763 82.101112 
L 200.042483 24.640243 
L 200.156842 60.046533 
L 200.245787 59.952091 
L 200.516859 59.183422 
L 200.597334 59.381312 
L 200.783696 60.761906 
L 200.914996 61.350547 
L 200.957351 61.273513 
L 201.063239 60.444533 
L 201.330075 57.790866 
L 201.385137 57.965572 
L 201.507966 59.539777 
L 201.753625 62.753821 
L 201.791745 62.625709 
L 201.893397 61.231665 
L 202.17294 56.383222 
L 202.228001 56.680781 
L 202.355066 59.31886 
L 202.59649 64.163205 
L 202.630374 64.017271 
L 202.72779 62.196084 
L 203.015804 54.973527 
L 203.075101 55.422498 
L 203.206402 59.260664 
L 203.439354 65.573945 
L 203.473238 65.406407 
L 203.566419 63.219 
L 203.862904 53.56202 
L 203.926437 54.253001 
L 204.070444 59.920859 
L 204.286454 66.985452 
L 204.316103 66.814757 
L 204.405048 64.374112 
L 204.710004 52.150514 
L 204.777772 53.132051 
L 204.934486 60.942127 
L 205.133554 68.396959 
L 205.163203 68.182594 
L 205.252148 65.239662 
L 205.557104 50.739007 
L 205.624872 51.916508 
L 205.781586 61.119123 
L 205.980654 69.808466 
L 206.010303 69.550431 
L 206.099248 66.105212 
L 206.404204 49.3275 
L 206.471972 50.700964 
L 206.628686 61.296119 
L 206.827754 71.219973 
L 206.857403 70.918267 
L 206.946348 66.970761 
L 207.251304 47.915993 
L 207.314837 49.302907 
L 207.463079 60.309217 
L 207.674854 72.63148 
L 207.704503 72.286104 
L 207.797684 67.516023 
L 208.098404 46.504486 
L 208.157701 47.872802 
L 208.297473 59.057184 
L 208.521954 74.042987 
L 208.551603 73.653941 
L 208.644784 68.346096 
L 208.941269 45.092719 
L 209.004801 46.614519 
L 209.148808 59.444228 
L 209.364819 75.455101 
L 209.394467 75.129223 
L 209.479177 70.319915 
L 209.788369 43.680516 
L 209.864608 46.101371 
L 210.038263 64.567999 
L 210.211919 76.867305 
L 210.245803 76.389615 
L 210.338984 70.006241 
L 210.635469 42.268312 
L 210.699001 44.097953 
L 210.843008 59.355512 
L 211.059019 78.279509 
L 211.088667 77.88561 
L 211.173377 72.18773 
L 211.482569 40.856108 
L 211.558808 43.716645 
L 211.732463 65.355983 
L 211.906119 79.691713 
L 211.940003 79.125288 
L 212.033184 71.666386 
L 212.329669 39.443904 
L 212.393201 41.581388 
L 212.537208 59.266795 
L 212.753219 81.103916 
L 212.782867 80.641997 
L 212.867577 74.055544 
L 213.176769 38.0317 
L 213.248772 40.976619 
L 213.413957 64.096573 
L 213.600319 82.51612 
L 213.634203 81.860962 
L 213.727384 73.326531 
L 214.023869 36.619497 
L 214.087401 39.064822 
L 214.231408 59.178078 
L 214.447419 83.928324 
L 214.477067 83.398383 
L 214.561777 75.923358 
L 214.870969 35.207293 
L 214.942972 38.545533 
L 215.108157 64.625814 
L 215.294519 85.340528 
L 215.328403 84.596636 
L 215.421584 74.986677 
L 215.718069 33.795089 
L 215.777366 36.19211 
L 215.912902 56.605723 
L 216.141619 86.752732 
L 216.171267 86.15477 
L 216.255977 77.791172 
L 216.565169 32.382885 
L 216.637172 36.114446 
L 216.802357 65.155055 
L 216.988719 88.164935 
L 217.018367 87.532963 
L 217.103077 78.725079 
L 217.412269 30.970681 
L 217.484272 34.898903 
L 217.649457 65.419676 
L 217.835819 89.577139 
L 217.865467 88.911157 
L 217.954413 78.950508 
L 218.259369 29.558478 
L 218.327137 33.215099 
L 218.48385 62.81343 
L 218.682919 90.989343 
L 218.712567 90.28935 
L 218.801513 79.85068 
L 219.106469 28.146274 
L 219.174237 31.977576 
L 219.33095 62.946331 
L 219.530019 92.401547 
L 219.559667 91.667544 
L 219.648613 80.750853 
L 219.953569 26.73407 
L 220.021337 30.740052 
L 220.17805 63.079231 
L 220.377119 93.813751 
L 220.406767 93.045737 
L 220.495713 81.651026 
L 220.800669 25.321866 
L 220.868437 29.502529 
L 221.02515 63.212131 
L 221.219983 95.201476 
L 221.224219 45.798821 
L 221.334342 50.253659 
L 221.647769 74.042897 
L 221.724008 71.84449 
L 221.906134 55.13719 
L 222.071319 45.798821 
L 222.105203 46.242491 
L 222.202619 51.983097 
L 222.494869 74.042897 
L 222.54993 72.881425 
L 222.681231 62.567065 
L 222.918419 45.798821 
L 222.948067 46.138926 
L 223.037013 50.919134 
L 223.341969 74.042897 
L 223.405501 72.503687 
L 223.553744 59.920859 
L 223.765519 45.798821 
L 223.795167 46.138926 
L 223.884113 50.919134 
L 224.189069 74.042897 
L 224.252601 72.503687 
L 224.400844 59.920859 
L 224.612619 45.798821 
L 224.642267 46.138926 
L 224.731213 50.919134 
L 225.036169 74.042897 
L 225.099701 72.503687 
L 225.247944 59.920859 
L 225.459719 45.798821 
L 225.489367 46.138926 
L 225.578313 50.919134 
L 225.883269 74.042897 
L 225.946801 72.503687 
L 226.095044 59.920859 
L 226.306819 45.798821 
L 226.336467 46.138926 
L 226.425413 50.919134 
L 226.730369 74.042897 
L 226.793901 72.503687 
L 226.942144 59.920859 
L 227.153919 45.798821 
L 227.183567 46.138926 
L 227.272513 50.919134 
L 227.577469 74.042897 
L 227.641001 72.503687 
L 227.789244 59.920859 
L 228.001019 45.798821 
L 228.030667 46.138926 
L 228.119613 50.919134 
L 228.424569 74.042897 
L 228.488101 72.503687 
L 228.636344 59.920859 
L 228.848119 45.798821 
L 228.877767 46.138926 
L 228.966713 50.919134 
L 229.271669 74.042897 
L 229.335201 72.503687 
L 229.483444 59.920859 
L 229.695219 45.798821 
L 229.724867 46.138926 
L 229.813813 50.919134 
L 230.118769 74.042897 
L 230.182301 72.503687 
L 230.330544 59.920859 
L 230.542319 45.798821 
L 230.571967 46.138926 
L 230.660913 50.919134 
L 230.965869 74.042897 
L 231.029401 72.503687 
L 231.177644 59.920859 
L 231.389419 45.798821 
L 231.419067 46.138926 
L 231.508013 50.919134 
L 231.812969 74.042897 
L 231.876501 72.503687 
L 232.024744 59.920859 
L 232.236519 45.798821 
L 232.266167 46.138926 
L 232.355113 50.919134 
L 232.660069 74.042897 
L 232.723601 72.503687 
L 232.871844 59.920859 
L 233.083619 45.798821 
L 233.113267 46.138926 
L 233.202213 50.919134 
L 233.507169 74.042897 
L 233.570701 72.503687 
L 233.718944 59.920859 
L 233.930719 45.798821 
L 233.960367 46.138926 
L 234.049313 50.919134 
L 234.354269 74.042897 
L 234.417801 72.503687 
L 234.566044 59.920859 
L 234.777819 45.798821 
L 234.807467 46.138926 
L 234.896413 50.919134 
L 235.201369 74.042897 
L 235.264901 72.503687 
L 235.413144 59.920859 
L 235.624919 45.798821 
L 235.654567 46.138926 
L 235.743513 50.919134 
L 236.048469 74.042897 
L 236.112001 72.503687 
L 236.260244 59.920859 
L 236.472019 45.798821 
L 236.501667 46.138926 
L 236.590613 50.919134 
L 236.895569 74.042897 
L 236.959101 72.503687 
L 237.107344 59.920859 
L 237.319119 45.798821 
L 237.348767 46.138926 
L 237.437713 50.919134 
L 237.742669 74.042897 
L 237.806201 72.503687 
L 237.954444 59.920859 
L 238.166219 45.798821 
L 238.195867 46.138926 
L 238.284813 50.919134 
L 238.589769 74.042897 
L 238.653301 72.503687 
L 238.801544 59.920859 
L 239.013319 45.798821 
L 239.042967 46.138926 
L 239.131913 50.919134 
L 239.436869 74.042897 
L 239.500401 72.503687 
L 239.648644 59.920859 
L 239.860419 45.798821 
L 239.890067 46.138926 
L 239.979013 50.919134 
L 240.283969 74.042897 
L 240.347501 72.503687 
L 240.495744 59.920859 
L 240.707519 45.798821 
L 240.737167 46.138926 
L 240.826113 50.919134 
L 241.131069 74.042897 
L 241.194601 72.503687 
L 241.342844 59.920859 
L 241.554619 45.798821 
L 241.584267 46.138926 
L 241.673213 50.919134 
L 241.978169 74.042897 
L 242.041701 72.503687 
L 242.189944 59.920859 
L 242.401719 45.798821 
L 242.401719 45.798821 
" clip-path="url(#pc642b3b8e1)" style="fill: none; stroke: #9aa0a6; stroke-width: 0.5; stroke-linecap: square"/>
   </g>
   <g id="line2d_15">
    <path d="M 157.691719 59.920859 
L 178.932751 59.814944 
L 200.042483 24.622825 
L 200.046719 59.920859 
L 200.156842 59.737273 
L 221.219983 24.622825 
L 221.334342 45.798821 
L 242.401719 45.798821 
L 242.401719 45.798821 
" clip-path="url(#pc642b3b8e1)" style="fill: none; stroke: #d95319; stroke-width: 1.1; stroke-linecap: square"/>
   </g>
   <g id="line2d_16">
    <path d="M 157.691719 59.920859 
L 178.932751 60.026775 
L 200.042483 95.218893 
L 200.046719 59.920859 
L 200.156842 60.104446 
L 221.219983 95.218893 
L 221.334342 74.042897 
L 242.401719 74.042897 
L 242.401719 74.042897 
" clip-path="url(#pc642b3b8e1)" style="fill: none; stroke: #d95319; stroke-width: 1.1; stroke-linecap: square"/>
   </g>
   <g id="patch_6">
    <path d="M 157.691719 100.521719 
L 157.691719 19.32 
" style="fill: none; stroke: #000000; stroke-width: 0.9; stroke-linejoin: miter; stroke-linecap: square"/>
   </g>
   <g id="patch_7">
    <path d="M 157.691719 100.521719 
L 242.401719 100.521719 
" style="fill: none; stroke: #000000; stroke-width: 0.9; stroke-linejoin: miter; stroke-linecap: square"/>
   </g>
   <g id="text_16">
    <text style="font-size: 12px; font-family: 'Helvetica', 'Arial', 'DejaVu Sans', sans-serif; text-anchor: middle" x="200.046719" y="13.32" transform="rotate(-0 200.046719 13.32)">AM signal</text>
   </g>
  </g>
  <g id="axes_3">
   <g id="patch_8">
    <path d="M 291.521719 100.521719 
L 376.231719 100.521719 
L 376.231719 19.32 
L 291.521719 19.32 
z
" style="fill: #ffffff"/>
   </g>
   <g id="matplotlib.axis_5">
    <g id="xtick_7">
     <g id="line2d_17">
      <g>
       <use xlink:href="#mca08f1d630" x="291.521719" y="100.521719" style="stroke: #000000; stroke-width: 0.8"/>
      </g>
     </g>
     <g id="text_17">
      <text style="font-size: 11px; font-family: 'Helvetica', 'Arial', 'DejaVu Sans', sans-serif; text-anchor: middle" x="291.521719" y="115.771719" transform="rotate(-0 291.521719 115.771719)">0.0</text>
     </g>
    </g>
    <g id="xtick_8">
     <g id="line2d_18">
      <g>
       <use xlink:href="#mca08f1d630" x="333.876719" y="100.521719" style="stroke: #000000; stroke-width: 0.8"/>
      </g>
     </g>
     <g id="text_18">
      <text style="font-size: 11px; font-family: 'Helvetica', 'Arial', 'DejaVu Sans', sans-serif; text-anchor: middle" x="333.876719" y="115.771719" transform="rotate(-0 333.876719 115.771719)">0.5</text>
     </g>
    </g>
    <g id="xtick_9">
     <g id="line2d_19">
      <g>
       <use xlink:href="#mca08f1d630" x="376.231719" y="100.521719" style="stroke: #000000; stroke-width: 0.8"/>
      </g>
     </g>
     <g id="text_19">
      <text style="font-size: 11px; font-family: 'Helvetica', 'Arial', 'DejaVu Sans', sans-serif; text-anchor: middle" x="376.231719" y="115.771719" transform="rotate(-0 376.231719 115.771719)">1.0</text>
     </g>
    </g>
    <g id="text_20">
     <!-- $t$ -->
     <g transform="translate(331.676719 129.890859)">
      <text>
       <tspan x="0" y="-0.28125" style="font-style: oblique; font-size: 11px; font-family: 'DejaVu Sans'">t</tspan>
      </text>
     </g>
    </g>
   </g>
   <g id="matplotlib.axis_6">
    <g id="ytick_7">
     <g id="line2d_20">
      <g>
       <use xlink:href="#m6e03125534" x="291.521719" y="95.225954" style="stroke: #000000; stroke-width: 0.8"/>
      </g>
     </g>
     <g id="text_21">
      <text style="font-size: 11px; font-family: 'Helvetica', 'Arial', 'DejaVu Sans', sans-serif; text-anchor: end" x="284.521719" y="99.350954" transform="rotate(-0 284.521719 99.350954)">−1</text>
     </g>
    </g>
    <g id="ytick_8">
     <g id="line2d_21">
      <g>
       <use xlink:href="#m6e03125534" x="291.521719" y="59.920859" style="stroke: #000000; stroke-width: 0.8"/>
      </g>
     </g>
     <g id="text_22">
      <text style="font-size: 11px; font-family: 'Helvetica', 'Arial', 'DejaVu Sans', sans-serif; text-anchor: end" x="284.521719" y="64.045859" transform="rotate(-0 284.521719 64.045859)">0</text>
     </g>
    </g>
    <g id="ytick_9">
     <g id="line2d_22">
      <g>
       <use xlink:href="#m6e03125534" x="291.521719" y="24.615764" style="stroke: #000000; stroke-width: 0.8"/>
      </g>
     </g>
     <g id="text_23">
      <text style="font-size: 11px; font-family: 'Helvetica', 'Arial', 'DejaVu Sans', sans-serif; text-anchor: end" x="284.521719" y="28.740764" transform="rotate(-0 284.521719 28.740764)">1</text>
     </g>
    </g>
   </g>
   <g id="line2d_23">
    <path d="M 291.521719 59.920859 
L 312.978762 59.812701 
L 313.148182 59.198671 
L 313.211714 59.387429 
L 313.334544 59.920859 
L 313.389605 59.739325 
L 313.559025 58.500167 
L 313.626793 58.863051 
L 313.758094 59.920859 
L 313.813155 59.627954 
L 313.97834 57.796839 
L 314.046108 58.320134 
L 314.181644 59.920859 
L 314.236705 59.516583 
L 314.397654 57.092184 
L 314.465422 57.739388 
L 314.605194 59.920859 
L 314.660255 59.405212 
L 314.821204 56.386779 
L 314.888972 57.216254 
L 315.028744 59.920859 
L 315.083805 59.293841 
L 315.244754 55.681374 
L 315.308287 56.580753 
L 315.452294 59.920859 
L 315.511591 59.070888 
L 315.668304 54.975969 
L 315.727601 55.91279 
L 315.875844 59.920859 
L 315.935141 58.94288 
L 316.091854 54.270563 
L 316.151151 55.352221 
L 316.299394 59.920859 
L 316.358691 58.814872 
L 316.515404 53.565158 
L 316.574701 54.791652 
L 316.722944 59.920859 
L 316.782241 58.686864 
L 316.938954 52.859753 
L 316.998251 54.231083 
L 317.146494 59.920859 
L 317.205791 58.558856 
L 317.358269 52.153738 
L 317.421801 53.670514 
L 317.570044 59.920859 
L 317.629341 58.430849 
L 317.781819 51.447637 
L 317.845351 53.109945 
L 317.993594 59.920859 
L 318.052891 58.302841 
L 318.205369 50.741535 
L 318.268901 52.549376 
L 318.417144 59.920859 
L 318.476441 58.174833 
L 318.628919 50.035433 
L 318.692451 51.988807 
L 318.840694 59.920859 
L 318.899991 58.046825 
L 319.052469 49.329331 
L 319.116001 51.428238 
L 319.264244 59.920859 
L 319.323541 57.918817 
L 319.476019 48.623229 
L 319.539551 50.867669 
L 319.687794 59.920859 
L 319.747091 57.790809 
L 319.899569 47.917127 
L 319.963101 50.307099 
L 320.111344 59.920859 
L 320.170641 57.662802 
L 320.323119 47.211025 
L 320.386651 49.74653 
L 320.534894 59.920859 
L 320.594191 57.534794 
L 320.746669 46.504923 
L 320.810201 49.185961 
L 320.958444 59.920859 
L 321.017741 57.406786 
L 321.170219 45.798821 
L 321.233751 48.625392 
L 321.381994 59.920859 
L 321.441291 57.278778 
L 321.593769 45.092719 
L 321.657301 48.064823 
L 321.805544 59.920859 
L 321.864841 57.15077 
L 322.017319 44.386618 
L 322.080851 47.504254 
L 322.229094 59.920859 
L 322.288391 57.022763 
L 322.440869 43.680516 
L 322.504401 46.943685 
L 322.652644 59.920859 
L 322.711941 56.894755 
L 322.864419 42.974414 
L 322.927951 46.383116 
L 323.076194 59.920859 
L 323.135491 56.766747 
L 323.287969 42.268312 
L 323.351501 45.822547 
L 323.499744 59.920859 
L 323.559041 56.638739 
L 323.711519 41.56221 
L 323.775051 45.261978 
L 323.923294 59.920859 
L 323.982591 56.510731 
L 324.135069 40.856108 
L 324.198601 44.701408 
L 324.346844 59.920859 
L 324.406141 56.382724 
L 324.558619 40.150006 
L 324.622151 44.140839 
L 324.770394 59.920859 
L 324.829691 56.254716 
L 324.982169 39.443904 
L 325.045701 43.58027 
L 325.193944 59.920859 
L 325.253241 56.126708 
L 325.405719 38.737802 
L 325.469251 43.019701 
L 325.617494 59.920859 
L 325.676791 55.9987 
L 325.829269 38.0317 
L 325.892801 42.459132 
L 326.041044 59.920859 
L 326.100341 55.870692 
L 326.252819 37.325599 
L 326.316351 41.898563 
L 326.464594 59.920859 
L 326.523891 55.742685 
L 326.676369 36.619497 
L 326.739901 41.337994 
L 326.888144 59.920859 
L 326.947441 55.614677 
L 327.099919 35.913395 
L 327.163451 40.777425 
L 327.311694 59.920859 
L 327.370991 55.486669 
L 327.523469 35.207293 
L 327.587001 40.216856 
L 327.735244 59.920859 
L 327.794541 55.358661 
L 327.947019 34.501191 
L 328.010551 39.656287 
L 328.158794 59.920859 
L 328.218091 55.230653 
L 328.370569 33.795089 
L 328.434101 39.095718 
L 328.582344 59.920859 
L 328.641641 55.102646 
L 328.794119 33.088987 
L 328.857651 38.535148 
L 329.005894 59.920859 
L 329.065191 54.974638 
L 329.217669 32.382885 
L 329.281201 37.974579 
L 329.429444 59.920859 
L 329.488741 54.84663 
L 329.641219 31.676783 
L 329.704751 37.41401 
L 329.852994 59.920859 
L 329.912291 54.718622 
L 330.064769 30.970681 
L 330.128301 36.853441 
L 330.276544 59.920859 
L 330.335841 54.590614 
L 330.488319 30.264579 
L 330.551851 36.292872 
L 330.700094 59.920859 
L 330.759391 54.462607 
L 330.911869 29.558478 
L 330.975401 35.732303 
L 331.123644 59.920859 
L 331.182941 54.334599 
L 331.335419 28.852376 
L 331.398951 35.171734 
L 331.547194 59.920859 
L 331.606491 54.206591 
L 331.758969 28.146274 
L 331.822501 34.611165 
L 331.970744 59.920859 
L 332.030041 54.078583 
L 332.182519 27.440172 
L 332.246051 34.050596 
L 332.394294 59.920859 
L 332.453591 53.950575 
L 332.606069 26.73407 
L 332.669601 33.490027 
L 332.817844 59.920859 
L 332.877141 53.822568 
L 333.029619 26.027968 
L 333.093151 32.929458 
L 333.241394 59.920859 
L 333.300691 53.69456 
L 333.453169 25.321866 
L 333.516701 32.368888 
L 333.664944 59.920859 
L 333.724241 53.566552 
L 333.872483 24.657652 
L 333.965664 60.013438 
L 333.986842 60.006889 
L 334.122378 59.946188 
L 334.156262 60.029018 
L 334.325682 60.643047 
L 334.389214 60.454289 
L 334.512044 59.920859 
L 334.567105 60.102394 
L 334.736525 61.341552 
L 334.804293 60.978668 
L 334.935594 59.920859 
L 334.990655 60.213765 
L 335.15584 62.04488 
L 335.223608 61.521585 
L 335.359144 59.920859 
L 335.414205 60.325136 
L 335.575154 62.749534 
L 335.642922 62.10233 
L 335.782694 59.920859 
L 335.837755 60.436507 
L 335.998704 63.45494 
L 336.066472 62.625465 
L 336.206244 59.920859 
L 336.261305 60.547878 
L 336.422254 64.160345 
L 336.485787 63.260966 
L 336.629794 59.920859 
L 336.689091 60.770831 
L 336.845804 64.86575 
L 336.905101 63.928928 
L 337.053344 59.920859 
L 337.112641 60.898839 
L 337.269354 65.571155 
L 337.328651 64.489497 
L 337.476894 59.920859 
L 337.536191 61.026847 
L 337.692904 66.276561 
L 337.752201 65.050067 
L 337.900444 59.920859 
L 337.959741 61.154855 
L 338.116454 66.981966 
L 338.175751 65.610636 
L 338.323994 59.920859 
L 338.383291 61.282862 
L 338.535769 67.68798 
L 338.599301 66.171205 
L 338.747544 59.920859 
L 338.806841 61.41087 
L 338.959319 68.394082 
L 339.022851 66.731774 
L 339.171094 59.920859 
L 339.230391 61.538878 
L 339.382869 69.100184 
L 339.446401 67.292343 
L 339.594644 59.920859 
L 339.653941 61.666886 
L 339.806419 69.806286 
L 339.869951 67.852912 
L 340.018194 59.920859 
L 340.077491 61.794894 
L 340.229969 70.512388 
L 340.293501 68.413481 
L 340.441744 59.920859 
L 340.501041 61.922901 
L 340.653519 71.21849 
L 340.717051 68.97405 
L 340.865294 59.920859 
L 340.924591 62.050909 
L 341.077069 71.924592 
L 341.140601 69.534619 
L 341.288844 59.920859 
L 341.348141 62.178917 
L 341.500619 72.630694 
L 341.564151 70.095188 
L 341.712394 59.920859 
L 341.771691 62.306925 
L 341.924169 73.336796 
L 341.987701 70.655758 
L 342.135944 59.920859 
L 342.195241 62.434933 
L 342.347719 74.042897 
L 342.411251 71.216327 
L 342.559494 59.920859 
L 342.618791 62.56294 
L 342.771269 74.748999 
L 342.834801 71.776896 
L 342.983044 59.920859 
L 343.042341 62.690948 
L 343.194819 75.455101 
L 343.258351 72.337465 
L 343.406594 59.920859 
L 343.465891 62.818956 
L 343.618369 76.161203 
L 343.681901 72.898034 
L 343.830144 59.920859 
L 343.889441 62.946964 
L 344.041919 76.867305 
L 344.105451 73.458603 
L 344.253694 59.920859 
L 344.312991 63.074972 
L 344.465469 77.573407 
L 344.529001 74.019172 
L 344.677244 59.920859 
L 344.736541 63.20298 
L 344.889019 78.279509 
L 344.952551 74.579741 
L 345.100794 59.920859 
L 345.160091 63.330987 
L 345.312569 78.985611 
L 345.376101 75.14031 
L 345.524344 59.920859 
L 345.583641 63.458995 
L 345.736119 79.691713 
L 345.799651 75.700879 
L 345.947894 59.920859 
L 346.007191 63.587003 
L 346.159669 80.397815 
L 346.223201 76.261448 
L 346.371444 59.920859 
L 346.430741 63.715011 
L 346.583219 81.103916 
L 346.646751 76.822018 
L 346.794994 59.920859 
L 346.854291 63.843019 
L 347.006769 81.810018 
L 347.070301 77.382587 
L 347.218544 59.920859 
L 347.277841 63.971026 
L 347.430319 82.51612 
L 347.493851 77.943156 
L 347.642094 59.920859 
L 347.701391 64.099034 
L 347.853869 83.222222 
L 347.917401 78.503725 
L 348.065644 59.920859 
L 348.124941 64.227042 
L 348.277419 83.928324 
L 348.340951 79.064294 
L 348.489194 59.920859 
L 348.548491 64.35505 
L 348.700969 84.634426 
L 348.764501 79.624863 
L 348.912744 59.920859 
L 348.972041 64.483058 
L 349.124519 85.340528 
L 349.188051 80.185432 
L 349.336294 59.920859 
L 349.395591 64.611065 
L 349.548069 86.04663 
L 349.611601 80.746001 
L 349.759844 59.920859 
L 349.819141 64.739073 
L 349.971619 86.752732 
L 350.035151 81.30657 
L 350.183394 59.920859 
L 350.242691 64.867081 
L 350.395169 87.458834 
L 350.458701 81.867139 
L 350.606944 59.920859 
L 350.666241 64.995089 
L 350.818719 88.164935 
L 350.882251 82.427708 
L 351.030494 59.920859 
L 351.089791 65.123097 
L 351.242269 88.871037 
L 351.305801 82.988278 
L 351.454044 59.920859 
L 351.513341 65.251104 
L 351.665819 89.577139 
L 351.729351 83.548847 
L 351.877594 59.920859 
L 351.936891 65.379112 
L 352.089369 90.283241 
L 352.152901 84.109416 
L 352.301144 59.920859 
L 352.360441 65.50712 
L 352.512919 90.989343 
L 352.576451 84.669985 
L 352.724694 59.920859 
L 352.783991 65.635128 
L 352.936469 91.695445 
L 353.000001 85.230554 
L 353.148244 59.920859 
L 353.207541 65.763136 
L 353.360019 92.401547 
L 353.423551 85.791123 
L 353.571794 59.920859 
L 353.631091 65.891143 
L 353.783569 93.107649 
L 353.847101 86.351692 
L 353.995344 59.920859 
L 354.054641 66.019151 
L 354.207119 93.813751 
L 354.270651 86.912261 
L 354.418894 59.920859 
L 354.478191 66.147159 
L 354.630669 94.519853 
L 354.694201 87.47283 
L 354.842444 59.920859 
L 354.901741 66.275167 
L 355.049983 95.184067 
L 355.054219 45.798821 
L 355.164342 53.303205 
L 355.265994 59.920859 
L 355.31682 58.007102 
L 355.477769 45.798821 
L 355.545537 49.076357 
L 355.689544 59.920859 
L 355.744605 57.69344 
L 355.901319 45.798821 
L 355.964851 48.709478 
L 356.113094 59.920859 
L 356.172391 57.360703 
L 356.324869 45.798821 
L 356.384166 48.358977 
L 356.536644 59.920859 
L 356.595941 57.360703 
L 356.748419 45.798821 
L 356.807716 48.358977 
L 356.960194 59.920859 
L 357.019491 57.360703 
L 357.171969 45.798821 
L 357.231266 48.358977 
L 357.383744 59.920859 
L 357.443041 57.360703 
L 357.595519 45.798821 
L 357.654816 48.358977 
L 357.807294 59.920859 
L 357.866591 57.360703 
L 358.019069 45.798821 
L 358.078366 48.358977 
L 358.230844 59.920859 
L 358.290141 57.360703 
L 358.442619 45.798821 
L 358.501916 48.358977 
L 358.654394 59.920859 
L 358.713691 57.360703 
L 358.866169 45.798821 
L 358.925466 48.358977 
L 359.077944 59.920859 
L 359.137241 57.360703 
L 359.289719 45.798821 
L 359.349016 48.358977 
L 359.501494 59.920859 
L 359.560791 57.360703 
L 359.713269 45.798821 
L 359.772566 48.358977 
L 359.925044 59.920859 
L 359.984341 57.360703 
L 360.136819 45.798821 
L 360.196116 48.358977 
L 360.348594 59.920859 
L 360.407891 57.360703 
L 360.560369 45.798821 
L 360.619666 48.358977 
L 360.772144 59.920859 
L 360.831441 57.360703 
L 360.983919 45.798821 
L 361.043216 48.358977 
L 361.195694 59.920859 
L 361.254991 57.360703 
L 361.407469 45.798821 
L 361.466766 48.358977 
L 361.619244 59.920859 
L 361.678541 57.360703 
L 361.831019 45.798821 
L 361.890316 48.358977 
L 362.042794 59.920859 
L 362.102091 57.360703 
L 362.254569 45.798821 
L 362.313866 48.358977 
L 362.466344 59.920859 
L 362.525641 57.360703 
L 362.678119 45.798821 
L 362.737416 48.358977 
L 362.889894 59.920859 
L 362.949191 57.360703 
L 363.101669 45.798821 
L 363.160966 48.358977 
L 363.313444 59.920859 
L 363.372741 57.360703 
L 363.525219 45.798821 
L 363.584516 48.358977 
L 363.736994 59.920859 
L 363.796291 57.360703 
L 363.948769 45.798821 
L 364.008066 48.358977 
L 364.160544 59.920859 
L 364.219841 57.360703 
L 364.372319 45.798821 
L 364.431616 48.358977 
L 364.584094 59.920859 
L 364.643391 57.360703 
L 364.795869 45.798821 
L 364.855166 48.358977 
L 365.007644 59.920859 
L 365.066941 57.360703 
L 365.219419 45.798821 
L 365.278716 48.358977 
L 365.431194 59.920859 
L 365.490491 57.360703 
L 365.642969 45.798821 
L 365.702266 48.358977 
L 365.854744 59.920859 
L 365.914041 57.360703 
L 366.066519 45.798821 
L 366.125816 48.358977 
L 366.278294 59.920859 
L 366.337591 57.360703 
L 366.490069 45.798821 
L 366.549366 48.358977 
L 366.701844 59.920859 
L 366.761141 57.360703 
L 366.913619 45.798821 
L 366.972916 48.358977 
L 367.125394 59.920859 
L 367.184691 57.360703 
L 367.337169 45.798821 
L 367.396466 48.358977 
L 367.548944 59.920859 
L 367.608241 57.360703 
L 367.760719 45.798821 
L 367.820016 48.358977 
L 367.972494 59.920859 
L 368.031791 57.360703 
L 368.184269 45.798821 
L 368.243566 48.358977 
L 368.396044 59.920859 
L 368.455341 57.360703 
L 368.607819 45.798821 
L 368.667116 48.358977 
L 368.819594 59.920859 
L 368.878891 57.360703 
L 369.031369 45.798821 
L 369.090666 48.358977 
L 369.243144 59.920859 
L 369.302441 57.360703 
L 369.454919 45.798821 
L 369.514216 48.358977 
L 369.666694 59.920859 
L 369.725991 57.360703 
L 369.878469 45.798821 
L 369.937766 48.358977 
L 370.090244 59.920859 
L 370.149541 57.360703 
L 370.302019 45.798821 
L 370.361316 48.358977 
L 370.513794 59.920859 
L 370.573091 57.360703 
L 370.725569 45.798821 
L 370.784866 48.358977 
L 370.937344 59.920859 
L 370.996641 57.360703 
L 371.149119 45.798821 
L 371.208416 48.358977 
L 371.360894 59.920859 
L 371.420191 57.360703 
L 371.572669 45.798821 
L 371.631966 48.358977 
L 371.784444 59.920859 
L 371.843741 57.360703 
L 371.996219 45.798821 
L 372.055516 48.358977 
L 372.207994 59.920859 
L 372.267291 57.360703 
L 372.419769 45.798821 
L 372.479066 48.358977 
L 372.631544 59.920859 
L 372.690841 57.360703 
L 372.843319 45.798821 
L 372.902616 48.358977 
L 373.055094 59.920859 
L 373.114391 57.360703 
L 373.266869 45.798821 
L 373.326166 48.358977 
L 373.478644 59.920859 
L 373.537941 57.360703 
L 373.690419 45.798821 
L 373.749716 48.358977 
L 373.902194 59.920859 
L 373.961491 57.360703 
L 374.113969 45.798821 
L 374.173266 48.358977 
L 374.325744 59.920859 
L 374.385041 57.360703 
L 374.537519 45.798821 
L 374.596816 48.358977 
L 374.749294 59.920859 
L 374.808591 57.360703 
L 374.961069 45.798821 
L 375.020366 48.358977 
L 375.172844 59.920859 
L 375.232141 57.360703 
L 375.384619 45.798821 
L 375.443916 48.358977 
L 375.596394 59.920859 
L 375.655691 57.360703 
L 375.808169 45.798821 
L 375.867466 48.358977 
L 376.019944 59.920859 
L 376.079241 57.360703 
L 376.231719 45.798821 
L 376.231719 45.798821 
" clip-path="url(#pe33495b682)" style="fill: none; stroke: #9aa0a6; stroke-width: 0.5; stroke-linecap: square"/>
   </g>
   <g id="patch_9">
    <path d="M 291.521719 100.521719 
L 291.521719 19.32 
" style="fill: none; stroke: #000000; stroke-width: 0.9; stroke-linejoin: miter; stroke-linecap: square"/>
   </g>
   <g id="patch_10">
    <path d="M 291.521719 100.521719 
L 376.231719 100.521719 
" style="fill: none; stroke: #000000; stroke-width: 0.9; stroke-linejoin: miter; stroke-linecap: square"/>
   </g>
   <g id="text_24">
    <text style="font-size: 12px; font-family: 'Helvetica', 'Arial', 'DejaVu Sans', sans-serif; text-anchor: middle" x="333.876719" y="13.32" transform="rotate(-0 333.876719 13.32)">Multiplied by the carrier again</text>
   </g>
  </g>
  <g id="axes_4">
   <g id="patch_11">
    <path d="M 425.351719 100.521719 
L 510.061719 100.521719 
L 510.061719 19.32 
L 425.351719 19.32 
z
" style="fill: #ffffff"/>
   </g>
   <g id="matplotlib.axis_7">
    <g id="xtick_10">
     <g id="line2d_24">
      <g>
       <use xlink:href="#mca08f1d630" x="425.351719" y="100.521719" style="stroke: #000000; stroke-width: 0.8"/>
      </g>
     </g>
     <g id="text_25">
      <text style="font-size: 11px; font-family: 'Helvetica', 'Arial', 'DejaVu Sans', sans-serif; text-anchor: middle" x="425.351719" y="115.771719" transform="rotate(-0 425.351719 115.771719)">0.0</text>
     </g>
    </g>
    <g id="xtick_11">
     <g id="line2d_25">
      <g>
       <use xlink:href="#mca08f1d630" x="467.706719" y="100.521719" style="stroke: #000000; stroke-width: 0.8"/>
      </g>
     </g>
     <g id="text_26">
      <text style="font-size: 11px; font-family: 'Helvetica', 'Arial', 'DejaVu Sans', sans-serif; text-anchor: middle" x="467.706719" y="115.771719" transform="rotate(-0 467.706719 115.771719)">0.5</text>
     </g>
    </g>
    <g id="xtick_12">
     <g id="line2d_26">
      <g>
       <use xlink:href="#mca08f1d630" x="510.061719" y="100.521719" style="stroke: #000000; stroke-width: 0.8"/>
      </g>
     </g>
     <g id="text_27">
      <text style="font-size: 11px; font-family: 'Helvetica', 'Arial', 'DejaVu Sans', sans-serif; text-anchor: middle" x="510.061719" y="115.771719" transform="rotate(-0 510.061719 115.771719)">1.0</text>
     </g>
    </g>
    <g id="text_28">
     <!-- $t$ -->
     <g transform="translate(465.506719 129.890859)">
      <text>
       <tspan x="0" y="-0.28125" style="font-style: oblique; font-size: 11px; font-family: 'DejaVu Sans'">t</tspan>
      </text>
     </g>
    </g>
   </g>
   <g id="matplotlib.axis_8">
    <g id="ytick_10">
     <g id="line2d_27">
      <g>
       <use xlink:href="#m6e03125534" x="425.351719" y="95.225954" style="stroke: #000000; stroke-width: 0.8"/>
      </g>
     </g>
     <g id="text_29">
      <text style="font-size: 11px; font-family: 'Helvetica', 'Arial', 'DejaVu Sans', sans-serif; text-anchor: end" x="418.351719" y="99.350954" transform="rotate(-0 418.351719 99.350954)">−1</text>
     </g>
    </g>
    <g id="ytick_11">
     <g id="line2d_28">
      <g>
       <use xlink:href="#m6e03125534" x="425.351719" y="59.920859" style="stroke: #000000; stroke-width: 0.8"/>
      </g>
     </g>
     <g id="text_30">
      <text style="font-size: 11px; font-family: 'Helvetica', 'Arial', 'DejaVu Sans', sans-serif; text-anchor: end" x="418.351719" y="64.045859" transform="rotate(-0 418.351719 64.045859)">0</text>
     </g>
    </g>
    <g id="ytick_12">
     <g id="line2d_29">
      <g>
       <use xlink:href="#m6e03125534" x="425.351719" y="24.615764" style="stroke: #000000; stroke-width: 0.8"/>
      </g>
     </g>
     <g id="text_31">
      <text style="font-size: 11px; font-family: 'Helvetica', 'Arial', 'DejaVu Sans', sans-serif; text-anchor: end" x="418.351719" y="28.740764" transform="rotate(-0 418.351719 28.740764)">1</text>
     </g>
    </g>
   </g>
   <g id="line2d_30">
    <path d="M 425.351719 59.920859 
L 446.592751 59.814944 
L 467.702483 24.622825 
L 467.816842 60.104446 
L 488.879983 95.218893 
L 488.994342 45.798821 
L 510.061719 45.798821 
L 510.061719 45.798821 
" clip-path="url(#p88bafc4744)" style="fill: none; stroke-dasharray: 3.7,1.6; stroke-dashoffset: 0; stroke: #9aa0a6"/>
   </g>
   <g id="line2d_31">
    <path d="M 425.351719 56.316586 
L 425.902334 60.139206 
L 426.139522 60.580652 
L 426.283529 60.502372 
L 426.563072 59.984182 
L 426.910383 59.524811 
L 427.105216 59.580597 
L 427.456762 60.015282 
L 427.770189 60.227978 
L 428.003142 60.113742 
L 428.659644 59.673534 
L 428.951894 59.871523 
L 429.413563 60.148825 
L 429.688871 60.030566 
L 430.290312 59.718048 
L 430.607974 59.889817 
L 431.08235 60.114137 
L 431.391542 59.979803 
L 431.933686 59.740292 
L 432.26829 59.897449 
L 432.755373 60.094415 
L 433.089977 59.948317 
L 433.594002 59.754431 
L 433.941313 59.907377 
L 434.42416 60.082477 
L 434.779942 59.929552 
L 435.262789 59.763987 
L 435.627042 59.921328 
L 436.097182 60.074333 
L 436.469906 59.914435 
L 436.931576 59.77008 
L 437.308535 59.930337 
L 437.770205 60.069 
L 438.155635 59.903795 
L 438.608834 59.77486 
L 438.9985 59.942815 
L 439.443227 60.065788 
L 439.837129 59.896538 
L 440.281856 59.777153 
L 440.679993 59.949804 
L 441.11625 60.064419 
L 441.514387 59.891978 
L 441.950643 59.776955 
L 442.344545 59.947369 
L 442.785037 60.065683 
L 443.178938 59.894293 
L 443.61943 59.774346 
L 444.009096 59.94533 
L 444.449588 60.070902 
L 444.826548 59.905324 
L 445.279746 59.764739 
L 445.639764 59.926793 
L 446.105669 60.090949 
L 446.406389 59.934203 
L 447.389025 59.256401 
L 447.812575 58.979681 
L 449.057812 57.860651 
L 449.460185 57.62151 
L 449.968445 56.967637 
L 450.417408 56.564514 
L 451.294156 56.050103 
L 452.132785 55.147662 
L 452.886704 54.760877 
L 453.911695 53.720951 
L 454.441133 53.501693 
L 454.83927 52.979261 
L 455.356001 52.39676 
L 455.779551 52.297849 
L 456.118391 52.117239 
L 456.503821 51.593207 
L 457.012081 50.997122 
L 457.384805 50.922633 
L 457.740587 50.787659 
L 458.070956 50.366161 
L 458.689339 49.580918 
L 459.03665 49.539612 
L 459.388197 49.441388 
L 459.684682 49.073784 
L 460.375068 48.153973 
L 460.696966 48.158922 
L 461.035806 48.107468 
L 461.298407 47.794122 
L 462.077739 46.713965 
L 462.382695 46.794921 
L 462.687651 46.796367 
L 462.916368 46.532306 
L 463.784646 45.266357 
L 464.106544 45.499253 
L 464.356438 45.54176 
L 464.547036 45.309297 
L 464.877405 44.447002 
L 465.250129 43.699065 
L 465.419549 43.72724 
L 465.64403 44.081773 
L 465.999812 44.549749 
L 466.131113 44.414154 
L 466.32171 43.805491 
L 466.910445 41.401511 
L 466.969742 41.465263 
L 467.092571 41.955058 
L 467.29164 43.86466 
L 467.622009 49.62874 
L 468.274276 60.751943 
L 468.52417 61.968184 
L 468.621587 61.991032 
L 468.651235 61.960709 
L 468.824891 61.554373 
L 469.265383 60.555816 
L 469.405154 60.630385 
L 469.612694 61.085372 
L 470.209899 62.471176 
L 470.421674 62.468265 
L 470.976525 62.308594 
L 471.222184 62.634022 
L 471.925277 63.669291 
L 472.276823 63.682648 
L 472.59025 63.781371 
L 472.907913 64.169121 
L 473.534767 64.935745 
L 474.53858 65.570997 
L 475.156963 66.247731 
L 476.093009 66.857175 
L 476.783395 67.584605 
L 477.62626 68.106593 
L 478.431005 68.946488 
L 479.15104 69.330326 
L 480.146382 70.332942 
L 480.658878 70.526624 
L 481.018895 71.01376 
L 481.544097 71.656244 
L 481.874466 71.700312 
L 482.242955 71.788169 
L 482.526733 72.145239 
L 483.221355 73.105409 
L 483.500898 73.063519 
L 483.85668 73.042224 
L 484.085397 73.303995 
L 484.95791 74.573788 
L 485.275573 74.300995 
L 485.521232 74.237762 
L 485.699123 74.455334 
L 485.991372 75.260279 
L 486.406451 76.23142 
L 486.563165 76.19834 
L 486.762233 75.828233 
L 487.181548 75.080928 
L 487.300142 75.230864 
L 487.482268 75.922383 
L 488.071003 78.899724 
L 488.138771 78.795231 
L 488.265836 78.080189 
L 488.46914 75.379783 
L 488.803744 67.351267 
L 489.44754 52.339766 
L 489.688964 50.811448 
L 489.748261 50.797883 
L 489.790616 50.858405 
L 489.938858 51.42178 
L 490.544535 54.003636 
L 490.663129 53.901708 
L 490.870668 53.312443 
L 491.328102 52.085563 
L 491.476345 52.121561 
L 491.675413 52.491883 
L 492.187909 53.462359 
L 492.353093 53.380056 
L 492.624165 52.899163 
L 493.001125 52.374438 
L 493.183251 52.436652 
L 493.46703 52.852765 
L 493.839754 53.271027 
L 494.038822 53.196272 
L 494.403075 52.716356 
L 494.708031 52.500898 
L 494.924042 52.616093 
L 495.63137 53.156085 
L 495.910913 52.914778 
L 496.355641 52.575889 
L 496.597064 52.676272 
L 497.295922 53.099229 
L 497.609349 52.868086 
L 498.032899 52.624324 
L 498.303971 52.741627 
L 498.918118 53.070649 
L 499.231545 52.894137 
L 499.705921 52.659408 
L 500.006642 52.79072 
L 500.557257 53.044135 
L 500.88339 52.889761 
L 501.374708 52.686608 
L 501.709313 52.833589 
L 502.204866 53.021683 
L 502.556413 52.868065 
L 503.026553 52.707504 
L 503.395042 52.865291 
L 503.84824 53.003457 
L 504.233671 52.838713 
L 504.669927 52.724239 
L 505.076535 52.902204 
L 505.483143 52.989717 
L 505.910929 52.795031 
L 506.287888 52.732008 
L 506.72838 52.949374 
L 507.075691 52.995096 
L 507.478064 52.762751 
L 507.812668 52.686067 
L 508.109153 52.880515 
L 508.536939 53.123607 
L 508.752949 52.969041 
L 509.341684 52.372479 
L 509.367097 52.396994 
L 509.528046 52.748754 
L 509.760998 53.905369 
L 510.061719 56.279721 
L 510.061719 56.279721 
" clip-path="url(#p88bafc4744)" style="fill: none; stroke: #d95319; stroke-width: 1.2; stroke-linecap: square"/>
   </g>
   <g id="patch_12">
    <path d="M 425.351719 100.521719 
L 425.351719 19.32 
" style="fill: none; stroke: #000000; stroke-width: 0.9; stroke-linejoin: miter; stroke-linecap: square"/>
   </g>
   <g id="patch_13">
    <path d="M 425.351719 100.521719 
L 510.061719 100.521719 
" style="fill: none; stroke: #000000; stroke-width: 0.9; stroke-linejoin: miter; stroke-linecap: square"/>
   </g>
   <g id="text_32">
    <text style="font-size: 12px; font-family: 'Helvetica', 'Arial', 'DejaVu Sans', sans-serif; text-anchor: middle" x="467.706719" y="13.32" transform="rotate(-0 467.706719 13.32)">After the low-pass</text>
   </g>
  </g>
 </g>
 <defs>
  <clipPath id="p97813b79f7">
   <rect x="23.861719" y="19.32" width="84.71" height="81.201719"/>
  </clipPath>
  <clipPath id="pc642b3b8e1">
   <rect x="157.691719" y="19.32" width="84.71" height="81.201719"/>
  </clipPath>
  <clipPath id="pe33495b682">
   <rect x="291.521719" y="19.32" width="84.71" height="81.201719"/>
  </clipPath>
  <clipPath id="p88bafc4744">
   <rect x="425.351719" y="19.32" width="84.71" height="81.201719"/>
  </clipPath>
 </defs>
</svg>
