<?xml version="1.0" encoding="utf-8" standalone="no"?>
<!DOCTYPE svg PUBLIC "-//W3C//DTD SVG 1.1//EN"
  "http://www.w3.org/Graphics/SVG/1.1/DTD/svg11.dtd">
<svg xmlns:xlink="http://www.w3.org/1999/xlink" width="416.186719pt" height="359.28pt" viewBox="0 0 416.186719 359.28" xmlns="http://www.w3.org/2000/svg" version="1.1">
 <metadata>
  <rdf:RDF xmlns:dc="http://purl.org/dc/elements/1.1/" xmlns:cc="http://creativecommons.org/ns#" xmlns:rdf="http://www.w3.org/1999/02/22-rdf-syntax-ns#">
   <cc:Work>
    <dc:type rdf:resource="http://purl.org/dc/dcmitype/StillImage"/>
    <dc:date>2026-08-26T14:33:26.997218</dc:date>
    <dc:format>image/svg+xml</dc:format>
    <dc:creator>
     <cc:Agent>
      <dc:title>Matplotlib v3.11.1, https://matplotlib.org/</dc:title>
     </cc:Agent>
    </dc:creator>
   </cc:Work>
  </rdf:RDF>
 </metadata>
 <defs>
  <style type="text/css">*{stroke-linejoin: round; stroke-linecap: butt}</style>
 </defs>
 <g id="figure_1">
  <g id="patch_1">
   <path d="M 0 359.28 
L 416.186719 359.28 
L 416.186719 0 
L 0 0 
z
" style="fill: #ffffff"/>
  </g>
  <g id="axes_1">
   <g id="patch_2">
    <path d="M 23.861719 100.533906 
L 404.221719 100.533906 
L 404.221719 19.32 
L 23.861719 19.32 
z
" style="fill: #ffffff"/>
   </g>
   <g id="matplotlib.axis_1">
    <g id="xtick_1">
     <g id="line2d_1">
      <defs>
       <path id="me9169eca2a" d="M 0 0 
L 0 3.5 
" style="stroke: #000000; stroke-width: 0.8"/>
      </defs>
      <g>
       <use xlink:href="#me9169eca2a" x="23.861719" y="100.533906" style="stroke: #000000; stroke-width: 0.8"/>
      </g>
     </g>
    </g>
    <g id="xtick_2">
     <g id="line2d_2">
      <g>
       <use xlink:href="#me9169eca2a" x="99.933719" y="100.533906" style="stroke: #000000; stroke-width: 0.8"/>
      </g>
     </g>
    </g>
    <g id="xtick_3">
     <g id="line2d_3">
      <g>
       <use xlink:href="#me9169eca2a" x="176.005719" y="100.533906" style="stroke: #000000; stroke-width: 0.8"/>
      </g>
     </g>
    </g>
    <g id="xtick_4">
     <g id="line2d_4">
      <g>
       <use xlink:href="#me9169eca2a" x="252.077719" y="100.533906" style="stroke: #000000; stroke-width: 0.8"/>
      </g>
     </g>
    </g>
    <g id="xtick_5">
     <g id="line2d_5">
      <g>
       <use xlink:href="#me9169eca2a" x="328.149719" y="100.533906" style="stroke: #000000; stroke-width: 0.8"/>
      </g>
     </g>
    </g>
    <g id="xtick_6">
     <g id="line2d_6">
      <g>
       <use xlink:href="#me9169eca2a" x="404.221719" y="100.533906" style="stroke: #000000; stroke-width: 0.8"/>
      </g>
     </g>
    </g>
   </g>
   <g id="matplotlib.axis_2">
    <g id="ytick_1">
     <g id="line2d_7">
      <defs>
       <path id="m965c486e25" d="M 0 0 
L -3.5 0 
" style="stroke: #000000; stroke-width: 0.8"/>
      </defs>
      <g>
       <use xlink:href="#m965c486e25" x="23.861719" y="92.412516" style="stroke: #000000; stroke-width: 0.8"/>
      </g>
     </g>
     <g id="text_1">
      <text style="font-size: 11px; font-family: 'Helvetica', 'Arial', 'DejaVu Sans', sans-serif; text-anchor: end" x="16.861719" y="96.537516" transform="rotate(-0 16.861719 96.537516)">−1</text>
     </g>
    </g>
    <g id="ytick_2">
     <g id="line2d_8">
      <g>
       <use xlink:href="#m965c486e25" x="23.861719" y="59.926953" style="stroke: #000000; stroke-width: 0.8"/>
      </g>
     </g>
     <g id="text_2">
      <text style="font-size: 11px; font-family: 'Helvetica', 'Arial', 'DejaVu Sans', sans-serif; text-anchor: end" x="16.861719" y="64.051953" transform="rotate(-0 16.861719 64.051953)">0</text>
     </g>
    </g>
    <g id="ytick_3">
     <g id="line2d_9">
      <g>
       <use xlink:href="#m965c486e25" x="23.861719" y="27.441391" style="stroke: #000000; stroke-width: 0.8"/>
      </g>
     </g>
     <g id="text_3">
      <text style="font-size: 11px; font-family: 'Helvetica', 'Arial', 'DejaVu Sans', sans-serif; text-anchor: end" x="16.861719" y="31.566391" transform="rotate(-0 16.861719 31.566391)">1</text>
     </g>
    </g>
   </g>
   <g id="line2d_10">
    <path d="M 23.861719 59.926953 
L 119.275025 59.816502 
L 214.022701 27.447888 
L 214.136809 59.959439 
L 309.112701 92.406019 
L 309.226809 46.932728 
L 404.221719 46.932728 
L 404.221719 46.932728 
" clip-path="url(#pe7aa7cbacd)" style="fill: none; stroke: #d95319; stroke-width: 1.2; stroke-linecap: square"/>
   </g>
   <g id="patch_3">
    <path d="M 23.861719 100.533906 
L 23.861719 19.32 
" style="fill: none; stroke: #000000; stroke-width: 0.9; stroke-linejoin: miter; stroke-linecap: square"/>
   </g>
   <g id="patch_4">
    <path d="M 23.861719 100.533906 
L 404.221719 100.533906 
" style="fill: none; stroke: #000000; stroke-width: 0.9; stroke-linejoin: miter; stroke-linecap: square"/>
   </g>
   <g id="text_4">
    <text style="font-size: 12px; font-family: 'Helvetica', 'Arial', 'DejaVu Sans', sans-serif; text-anchor: middle" x="214.041719" y="13.32" transform="rotate(-0 214.041719 13.32)">Message</text>
   </g>
  </g>
  <g id="axes_2">
   <g id="patch_5">
    <path d="M 23.861719 212.127812 
L 404.221719 212.127812 
L 404.221719 130.913906 
L 23.861719 130.913906 
z
" style="fill: #ffffff"/>
   </g>
   <g id="matplotlib.axis_3">
    <g id="xtick_7">
     <g id="line2d_11">
      <g>
       <use xlink:href="#me9169eca2a" x="23.861719" y="212.127812" style="stroke: #000000; stroke-width: 0.8"/>
      </g>
     </g>
    </g>
    <g id="xtick_8">
     <g id="line2d_12">
      <g>
       <use xlink:href="#me9169eca2a" x="99.933719" y="212.127812" style="stroke: #000000; stroke-width: 0.8"/>
      </g>
     </g>
    </g>
    <g id="xtick_9">
     <g id="line2d_13">
      <g>
       <use xlink:href="#me9169eca2a" x="176.005719" y="212.127812" style="stroke: #000000; stroke-width: 0.8"/>
      </g>
     </g>
    </g>
    <g id="xtick_10">
     <g id="line2d_14">
      <g>
       <use xlink:href="#me9169eca2a" x="252.077719" y="212.127812" style="stroke: #000000; stroke-width: 0.8"/>
      </g>
     </g>
    </g>
    <g id="xtick_11">
     <g id="line2d_15">
      <g>
       <use xlink:href="#me9169eca2a" x="328.149719" y="212.127812" style="stroke: #000000; stroke-width: 0.8"/>
      </g>
     </g>
    </g>
    <g id="xtick_12">
     <g id="line2d_16">
      <g>
       <use xlink:href="#me9169eca2a" x="404.221719" y="212.127812" style="stroke: #000000; stroke-width: 0.8"/>
      </g>
     </g>
    </g>
   </g>
   <g id="matplotlib.axis_4">
    <g id="ytick_4">
     <g id="line2d_17">
      <g>
       <use xlink:href="#m965c486e25" x="23.861719" y="204.006422" style="stroke: #000000; stroke-width: 0.8"/>
      </g>
     </g>
     <g id="text_5">
      <text style="font-size: 11px; font-family: 'Helvetica', 'Arial', 'DejaVu Sans', sans-serif; text-anchor: end" x="16.861719" y="208.131422" transform="rotate(-0 16.861719 208.131422)">−1</text>
     </g>
    </g>
    <g id="ytick_5">
     <g id="line2d_18">
      <g>
       <use xlink:href="#m965c486e25" x="23.861719" y="171.520859" style="stroke: #000000; stroke-width: 0.8"/>
      </g>
     </g>
     <g id="text_6">
      <text style="font-size: 11px; font-family: 'Helvetica', 'Arial', 'DejaVu Sans', sans-serif; text-anchor: end" x="16.861719" y="175.645859" transform="rotate(-0 16.861719 175.645859)">0</text>
     </g>
    </g>
    <g id="ytick_6">
     <g id="line2d_19">
      <g>
       <use xlink:href="#m965c486e25" x="23.861719" y="139.035297" style="stroke: #000000; stroke-width: 0.8"/>
      </g>
     </g>
     <g id="text_7">
      <text style="font-size: 11px; font-family: 'Helvetica', 'Arial', 'DejaVu Sans', sans-serif; text-anchor: end" x="16.861719" y="143.160297" transform="rotate(-0 16.861719 143.160297)">1</text>
     </g>
    </g>
   </g>
   <g id="line2d_20">
    <path d="M 23.861719 171.520859 
L 119.370115 171.410725 
L 119.807529 171.475123 
L 120.321015 171.819041 
L 120.948609 172.194657 
L 121.271915 172.131605 
L 121.614239 171.80194 
L 122.241833 170.777545 
L 122.698265 170.246609 
L 122.964517 170.231015 
L 123.211751 170.459953 
L 123.554075 171.129844 
L 124.619083 173.453178 
L 124.828281 173.448752 
L 125.056497 173.168785 
L 125.379803 172.32927 
L 126.520883 168.940111 
L 126.711063 168.953318 
L 126.920261 169.269306 
L 127.224549 170.237771 
L 128.441701 174.761319 
L 128.612863 174.7177 
L 128.803043 174.362449 
L 129.088313 173.28365 
L 129.753943 169.543466 
L 130.172339 167.875178 
L 130.400555 167.617316 
L 130.552699 167.751595 
L 130.761897 168.332816 
L 131.104221 170.114536 
L 132.112175 175.875611 
L 132.321373 176.068059 
L 132.454499 175.908035 
L 132.663697 175.222276 
L 133.006021 173.147264 
L 133.994957 166.585703 
L 134.204155 166.320457 
L 134.337281 166.473398 
L 134.546479 167.210714 
L 134.869785 169.361136 
L 135.934793 177.183052 
L 136.124973 177.361714 
L 136.258099 177.14386 
L 136.467297 176.249021 
L 136.809621 173.587428 
L 137.779539 165.403529 
L 137.988737 165.020459 
L 138.102845 165.135834 
L 138.274007 165.736301 
L 138.559277 167.755731 
L 139.167853 174.263734 
L 139.624285 178.002374 
L 139.871519 178.667683 
L 139.985627 178.579385 
L 140.156789 177.975561 
L 140.423041 176.01668 
L 140.936527 170.113502 
L 141.488049 164.66093 
L 141.754301 163.734665 
L 141.868409 163.788227 
L 142.020553 164.288037 
L 142.267787 166.068127 
L 142.705201 171.265964 
L 143.389849 178.959685 
L 143.656101 179.956444 
L 143.770209 179.895204 
L 143.922353 179.349957 
L 144.169587 177.41835 
L 144.607001 171.796162 
L 145.272631 163.641106 
L 145.538883 162.455819 
L 145.633973 162.445865 
L 145.652991 162.470843 
L 145.786117 162.895405 
L 146.014333 164.585789 
L 146.394693 169.475694 
L 147.212467 180.256701 
L 147.459701 181.255225 
L 147.554791 181.215464 
L 147.687917 180.757615 
L 147.916133 178.943285 
L 148.296493 173.707755 
L 149.114267 162.197141 
L 149.361501 161.137103 
L 149.456591 161.181667 
L 149.589717 161.672803 
L 149.817933 163.611078 
L 150.198293 169.192234 
L 151.016067 181.432454 
L 151.263301 182.554007 
L 151.339373 182.536337 
L 151.358391 182.50464 
L 151.491517 181.980216 
L 151.719733 179.917996 
L 152.100093 173.991215 
L 152.917867 161.021388 
L 153.165101 159.838321 
L 153.241173 159.858554 
L 153.260191 159.89249 
L 153.393317 160.450202 
L 153.621533 162.636367 
L 154.001893 168.908773 
L 154.819667 182.608207 
L 155.066901 183.852788 
L 155.142973 183.829993 
L 155.161991 183.793816 
L 155.295117 183.202818 
L 155.523333 180.892708 
L 155.903693 174.274676 
L 156.721467 159.845636 
L 156.968701 158.53954 
L 157.044773 158.564898 
L 157.063791 158.603314 
L 157.196917 159.2276 
L 157.425133 161.661656 
L 157.805493 168.625313 
L 158.623267 183.783959 
L 158.870501 185.151569 
L 158.946573 185.123648 
L 158.965591 185.082993 
L 159.098717 184.42542 
L 159.326933 181.867419 
L 159.707293 174.558136 
L 160.525067 158.669883 
L 160.772301 157.240759 
L 160.829355 157.242449 
L 160.848373 157.271243 
L 160.962481 157.738608 
L 161.171679 159.85193 
L 161.514003 166.16813 
L 162.483921 185.513535 
L 162.693119 186.464218 
L 162.769191 186.372169 
L 162.902317 185.648021 
L 163.130533 182.84213 
L 163.510893 174.841596 
L 164.309649 157.714167 
L 164.556883 155.971527 
L 164.613937 155.92899 
L 164.651973 155.977587 
L 164.766081 156.49078 
L 164.975279 158.800675 
L 165.317603 165.689781 
L 166.287521 186.736137 
L 166.496719 187.763641 
L 166.572791 187.661345 
L 166.705917 186.870623 
L 166.934133 183.816841 
L 167.314493 175.125056 
L 168.113249 156.556373 
L 168.360483 154.674669 
L 168.417537 154.630208 
L 168.455573 154.683932 
L 168.569681 155.242953 
L 168.778879 157.74942 
L 169.121203 165.211432 
L 170.091121 187.958738 
L 170.300319 189.063063 
L 170.376391 188.950521 
L 170.509517 188.093225 
L 170.737733 184.791552 
L 171.118093 175.408517 
L 171.916849 155.398579 
L 172.164083 153.377811 
L 172.221137 153.331427 
L 172.259173 153.390276 
L 172.373281 153.995126 
L 172.582479 156.698165 
L 172.924803 164.733082 
L 173.894721 189.18134 
L 174.103919 190.362486 
L 174.179991 190.239697 
L 174.313117 189.315826 
L 174.541333 185.766264 
L 174.921693 175.691977 
L 175.720449 154.240785 
L 175.967683 152.080952 
L 176.024737 152.032646 
L 176.062773 152.09662 
L 176.176881 152.747299 
L 176.386079 155.646911 
L 176.728403 164.254733 
L 177.698321 190.403942 
L 177.907519 191.661908 
L 177.964573 191.591926 
L 178.078681 190.918334 
L 178.287879 187.920436 
L 178.630203 179.02616 
L 179.600121 152.026476 
L 179.809319 150.730099 
L 179.866373 150.802965 
L 179.980481 151.499472 
L 180.189679 154.595656 
L 180.532003 163.776384 
L 181.501921 191.626543 
L 181.711119 192.961331 
L 181.768173 192.885582 
L 181.882281 192.166161 
L 182.091479 188.97169 
L 182.433803 179.50451 
L 183.403721 150.803875 
L 183.612919 149.430677 
L 183.669973 149.509309 
L 183.784081 150.251644 
L 183.993279 153.544401 
L 184.335603 163.298034 
L 185.305521 192.849145 
L 185.514719 194.260753 
L 185.571773 194.179238 
L 185.685881 193.413988 
L 185.895079 190.022945 
L 186.237403 179.982859 
L 187.188303 149.846245 
L 187.416519 148.131254 
L 187.473573 148.215653 
L 187.587681 149.003817 
L 187.796879 152.493146 
L 188.139203 162.819685 
L 189.090103 193.79956 
L 189.318319 195.560176 
L 189.375373 195.472893 
L 189.489481 194.661815 
L 189.698679 191.0742 
L 190.041003 180.461208 
L 190.991903 148.638072 
L 191.220119 146.831832 
L 191.277173 146.921998 
L 191.391281 147.75599 
L 191.600479 151.441891 
L 191.942803 162.341336 
L 192.893703 195.007732 
L 193.121919 196.859598 
L 193.178973 196.766549 
L 193.293081 195.909642 
L 193.502279 192.125455 
L 193.844603 180.939558 
L 194.795503 147.4299 
L 195.023719 145.532409 
L 195.080773 145.628342 
L 195.194881 146.508163 
L 195.404079 150.390636 
L 195.746403 161.862986 
L 196.697303 196.215905 
L 196.925519 198.159021 
L 196.982573 198.060204 
L 197.096681 197.15747 
L 197.305879 193.17671 
L 197.648203 181.417907 
L 198.599103 146.221728 
L 198.827319 144.232987 
L 198.884373 144.334687 
L 198.998481 145.260335 
L 199.207679 149.339381 
L 199.550003 161.384637 
L 200.500903 197.424077 
L 200.729119 199.458443 
L 200.786173 199.35386 
L 200.900281 198.405297 
L 201.109479 194.227965 
L 201.451803 181.896256 
L 202.402703 145.013555 
L 202.630919 142.933564 
L 202.687973 143.041031 
L 202.802081 144.012508 
L 203.011279 148.288126 
L 203.353603 160.906288 
L 204.304503 198.63225 
L 204.532719 200.757866 
L 204.589773 200.647516 
L 204.703881 199.653124 
L 204.913079 195.27922 
L 205.255403 182.374606 
L 206.206303 143.805383 
L 206.434519 141.634142 
L 206.491573 141.747375 
L 206.605681 142.764681 
L 206.814879 147.236872 
L 207.157203 160.427938 
L 208.108103 199.840422 
L 208.336319 202.057288 
L 208.393373 201.941171 
L 208.507481 200.900951 
L 208.716679 196.330475 
L 209.059003 182.852955 
L 210.009903 142.59721 
L 210.238119 140.334719 
L 210.295173 140.45372 
L 210.409281 141.516854 
L 210.618479 146.185617 
L 210.960803 159.949589 
L 211.911703 201.048595 
L 212.139919 203.356711 
L 212.196973 203.234827 
L 212.311081 202.148779 
L 212.520279 197.38173 
L 212.862603 183.331304 
L 213.813503 141.389038 
L 214.022701 139.05782 
L 214.136809 171.552945 
L 214.707349 171.624096 
L 215.144763 171.427145 
L 216.171735 170.844283 
L 216.476023 170.990758 
L 216.856383 171.460482 
L 217.845319 172.820282 
L 218.092553 172.790926 
L 218.358805 172.496192 
L 218.739165 171.671883 
L 219.613993 169.663052 
L 219.861227 169.567958 
L 220.070425 169.748088 
L 220.355695 170.365059 
L 220.869181 172.171596 
L 221.439721 173.89882 
L 221.686955 174.127545 
L 221.858117 174.033306 
L 222.086333 173.582374 
L 222.428657 172.320232 
L 223.417593 168.394923 
L 223.626791 168.272135 
L 223.797953 168.461966 
L 224.045187 169.181433 
L 224.444565 171.186406 
L 225.205285 175.020997 
L 225.452519 175.419127 
L 225.604663 175.347 
L 225.794843 174.911018 
L 226.099131 173.505284 
L 227.316283 166.994824 
L 227.468427 167.015146 
L 227.639589 167.381746 
L 227.905841 168.617889 
L 228.400309 172.28822 
L 228.989867 176.141567 
L 229.256119 176.718549 
L 229.389245 176.637757 
L 229.560407 176.166725 
L 229.845677 174.555604 
L 230.435235 169.459174 
L 230.910685 166.231896 
L 231.157919 165.673458 
L 231.272027 165.738739 
L 231.443189 166.223952 
L 231.709441 167.821464 
L 232.203909 172.491495 
L 232.774449 177.222994 
L 233.040701 178.008272 
L 233.154809 177.970067 
L 233.306953 177.56113 
L 233.554187 176.084076 
L 233.991601 171.734938 
L 234.676249 165.239827 
L 234.942501 164.384056 
L 235.056609 164.429939 
L 235.208753 164.884313 
L 235.455987 166.512885 
L 235.893401 171.286372 
L 236.578049 178.380788 
L 236.844301 179.307053 
L 236.958409 179.253492 
L 237.110553 178.753681 
L 237.357787 176.973592 
L 237.795201 171.775754 
L 238.479849 164.082033 
L 238.746101 163.085275 
L 238.860209 163.146515 
L 239.012353 163.691762 
L 239.259587 165.623369 
L 239.697001 171.245556 
L 240.362631 179.400612 
L 240.628883 180.585899 
L 240.723973 180.595854 
L 240.742991 180.570876 
L 240.876117 180.146314 
L 241.104333 178.45593 
L 241.484693 173.566025 
L 242.302467 162.785017 
L 242.549701 161.786493 
L 242.644791 161.826255 
L 242.777917 162.284104 
L 243.006133 164.098434 
L 243.386493 169.333964 
L 244.204267 180.844578 
L 244.451501 181.904616 
L 244.546591 181.860052 
L 244.679717 181.368916 
L 244.907933 179.430641 
L 245.288293 173.849485 
L 246.106067 161.609265 
L 246.353301 160.487712 
L 246.429373 160.505382 
L 246.448391 160.537078 
L 246.581517 161.061502 
L 246.809733 163.123722 
L 247.190093 169.050503 
L 248.007867 182.02033 
L 248.255101 183.203397 
L 248.331173 183.183165 
L 248.350191 183.149228 
L 248.483317 182.591517 
L 248.711533 180.405352 
L 249.091893 174.132945 
L 249.909667 160.433512 
L 250.156901 159.188931 
L 250.232973 159.211726 
L 250.251991 159.247902 
L 250.385117 159.838901 
L 250.613333 162.149011 
L 250.993693 168.767043 
L 251.811467 183.196083 
L 252.058701 184.502179 
L 252.134773 184.47682 
L 252.153791 184.438405 
L 252.286917 183.814119 
L 252.515133 181.380063 
L 252.895493 174.416406 
L 253.713267 159.257759 
L 253.960501 157.890149 
L 254.036573 157.918071 
L 254.055591 157.958726 
L 254.188717 158.616299 
L 254.416933 161.1743 
L 254.797293 168.483583 
L 255.615067 184.371836 
L 255.862301 185.80096 
L 255.919355 185.79927 
L 255.938373 185.770476 
L 256.052481 185.303111 
L 256.261679 183.189789 
L 256.604003 176.873588 
L 257.573921 157.528184 
L 257.783119 156.577501 
L 257.859191 156.66955 
L 257.992317 157.393697 
L 258.220533 160.199589 
L 258.600893 168.200123 
L 259.399649 185.327552 
L 259.646883 187.070191 
L 259.703937 187.112729 
L 259.741973 187.064132 
L 259.856081 186.550938 
L 260.065279 184.241043 
L 260.407603 177.351938 
L 261.377521 156.305582 
L 261.586719 155.278078 
L 261.662791 155.380374 
L 261.795917 156.171096 
L 262.024133 159.224878 
L 262.404493 167.916662 
L 263.203249 186.485346 
L 263.450483 188.36705 
L 263.507537 188.41151 
L 263.545573 188.357787 
L 263.659681 187.798765 
L 263.868879 185.292298 
L 264.211203 177.830287 
L 265.181121 155.08298 
L 265.390319 153.978656 
L 265.466391 154.091198 
L 265.599517 154.948494 
L 265.827733 158.250166 
L 266.208093 167.633202 
L 267.006849 187.64314 
L 267.254083 189.663908 
L 267.311137 189.710292 
L 267.349173 189.651443 
L 267.463281 189.046593 
L 267.672479 186.343553 
L 268.014803 178.308636 
L 268.984721 153.860379 
L 269.193919 152.679233 
L 269.269991 152.802021 
L 269.403117 153.725892 
L 269.631333 157.275455 
L 270.011693 167.349742 
L 270.810449 188.800934 
L 271.057683 190.960767 
L 271.114737 191.009073 
L 271.152773 190.945098 
L 271.266881 190.29442 
L 271.476079 187.394808 
L 271.818403 178.786986 
L 272.788321 152.637777 
L 272.997519 151.379811 
L 273.054573 151.449792 
L 273.168681 152.123385 
L 273.377879 155.121283 
L 273.720203 164.015558 
L 274.690121 191.015243 
L 274.899319 192.311619 
L 274.956373 192.238754 
L 275.070481 191.542247 
L 275.279679 188.446063 
L 275.622003 179.265335 
L 276.591921 151.415175 
L 276.801119 150.080388 
L 276.858173 150.156137 
L 276.972281 150.875558 
L 277.181479 154.070028 
L 277.523803 163.537209 
L 278.493721 192.237844 
L 278.702919 193.611042 
L 278.759973 193.53241 
L 278.874081 192.790074 
L 279.083279 189.497318 
L 279.425603 179.743684 
L 280.395521 150.192574 
L 280.604719 148.780966 
L 280.661773 148.862481 
L 280.775881 149.627731 
L 280.985079 153.018773 
L 281.327403 163.05886 
L 282.278303 193.195474 
L 282.506519 194.910464 
L 282.563573 194.826065 
L 282.677681 194.037902 
L 282.886879 190.548573 
L 283.229203 180.222034 
L 284.180103 149.242159 
L 284.408319 147.481543 
L 284.465373 147.568826 
L 284.579481 148.379904 
L 284.788679 151.967519 
L 285.131003 162.58051 
L 286.081903 194.403646 
L 286.310119 196.209887 
L 286.367173 196.119721 
L 286.481281 195.285729 
L 286.690479 191.599828 
L 287.032803 180.700383 
L 287.983703 148.033986 
L 288.211919 146.182121 
L 288.268973 146.27517 
L 288.383081 147.132076 
L 288.592279 150.916264 
L 288.934603 162.102161 
L 289.885503 195.611819 
L 290.113719 197.509309 
L 290.170773 197.413377 
L 290.284881 196.533556 
L 290.494079 192.651083 
L 290.836403 181.178732 
L 291.787303 146.825814 
L 292.015519 144.882698 
L 292.072573 144.981514 
L 292.186681 145.884249 
L 292.395879 149.865009 
L 292.738203 161.623812 
L 293.689103 196.819991 
L 293.917319 198.808732 
L 293.974373 198.707032 
L 294.088481 197.781383 
L 294.297679 193.702337 
L 294.640003 181.657082 
L 295.590903 145.617641 
L 295.819119 143.583276 
L 295.876173 143.687859 
L 295.990281 144.636422 
L 296.199479 148.813754 
L 296.541803 161.145462 
L 297.492703 198.028164 
L 297.720919 200.108154 
L 297.777973 200.000688 
L 297.892081 199.02921 
L 298.101279 194.753592 
L 298.443603 182.135431 
L 299.394503 144.409469 
L 299.622719 142.283853 
L 299.679773 142.394203 
L 299.793881 143.388595 
L 300.003079 147.762499 
L 300.345403 160.667113 
L 301.296303 199.236336 
L 301.524519 201.407577 
L 301.581573 201.294343 
L 301.695681 200.277038 
L 301.904879 195.804847 
L 302.247203 182.61378 
L 303.198103 143.201296 
L 303.426319 140.984431 
L 303.483373 141.100548 
L 303.597481 142.140767 
L 303.806679 146.711244 
L 304.149003 160.188764 
L 305.099903 200.444509 
L 305.328119 202.706999 
L 305.385173 202.587999 
L 305.499281 201.524865 
L 305.708479 196.856102 
L 306.050803 183.09213 
L 307.001703 141.993124 
L 307.229919 139.685008 
L 307.286973 139.806892 
L 307.401081 140.89294 
L 307.610279 145.659989 
L 307.952603 159.710415 
L 308.903503 201.652681 
L 309.112701 203.983898 
L 309.131719 158.526634 
L 309.226809 158.686615 
L 309.378953 159.595349 
L 309.645205 162.927624 
L 310.139673 172.743724 
L 310.710213 182.705535 
L 310.976465 184.457416 
L 311.052537 184.508673 
L 311.090573 184.457416 
L 311.223699 183.879102 
L 311.451915 181.533082 
L 311.832275 174.752392 
L 312.650049 159.94292 
L 312.897283 158.552276 
L 312.954337 158.533046 
L 312.992373 158.584303 
L 313.125499 159.162617 
L 313.353715 161.508637 
L 313.734075 168.289327 
L 314.551849 183.098799 
L 314.799083 184.489443 
L 314.856137 184.508673 
L 314.894173 184.457416 
L 315.027299 183.879102 
L 315.255515 181.533082 
L 315.635875 174.752392 
L 316.453649 159.94292 
L 316.700883 158.552276 
L 316.757937 158.533046 
L 316.795973 158.584303 
L 316.929099 159.162617 
L 317.157315 161.508637 
L 317.537675 168.289327 
L 318.355449 183.098799 
L 318.602683 184.489443 
L 318.659737 184.508673 
L 318.697773 184.457416 
L 318.830899 183.879102 
L 319.059115 181.533082 
L 319.439475 174.752392 
L 320.257249 159.94292 
L 320.504483 158.552276 
L 320.561537 158.533046 
L 320.599573 158.584303 
L 320.732699 159.162617 
L 320.960915 161.508637 
L 321.341275 168.289327 
L 322.159049 183.098799 
L 322.406283 184.489443 
L 322.463337 184.508673 
L 322.501373 184.457416 
L 322.634499 183.879102 
L 322.862715 181.533082 
L 323.243075 174.752392 
L 324.060849 159.94292 
L 324.308083 158.552276 
L 324.365137 158.533046 
L 324.403173 158.584303 
L 324.536299 159.162617 
L 324.764515 161.508637 
L 325.144875 168.289327 
L 325.962649 183.098799 
L 326.209883 184.489443 
L 326.266937 184.508673 
L 326.304973 184.457416 
L 326.438099 183.879102 
L 326.666315 181.533082 
L 327.046675 174.752392 
L 327.864449 159.94292 
L 328.111683 158.552276 
L 328.168737 158.533046 
L 328.206773 158.584303 
L 328.339899 159.162617 
L 328.568115 161.508637 
L 328.948475 168.289327 
L 329.766249 183.098799 
L 330.013483 184.489443 
L 330.070537 184.508673 
L 330.108573 184.457416 
L 330.241699 183.879102 
L 330.469915 181.533082 
L 330.850275 174.752392 
L 331.668049 159.94292 
L 331.915283 158.552276 
L 331.972337 158.533046 
L 332.010373 158.584303 
L 332.143499 159.162617 
L 332.371715 161.508637 
L 332.752075 168.289327 
L 333.569849 183.098799 
L 333.817083 184.489443 
L 333.874137 184.508673 
L 333.912173 184.457416 
L 334.045299 183.879102 
L 334.273515 181.533082 
L 334.653875 174.752392 
L 335.471649 159.94292 
L 335.718883 158.552276 
L 335.775937 158.533046 
L 335.813973 158.584303 
L 335.947099 159.162617 
L 336.175315 161.508637 
L 336.555675 168.289327 
L 337.373449 183.098799 
L 337.620683 184.489443 
L 337.677737 184.508673 
L 337.715773 184.457416 
L 337.848899 183.879102 
L 338.077115 181.533082 
L 338.457475 174.752392 
L 339.275249 159.94292 
L 339.522483 158.552276 
L 339.579537 158.533046 
L 339.617573 158.584303 
L 339.750699 159.162617 
L 339.978915 161.508637 
L 340.359275 168.289327 
L 341.177049 183.098799 
L 341.424283 184.489443 
L 341.481337 184.508673 
L 341.519373 184.457416 
L 341.652499 183.879102 
L 341.880715 181.533082 
L 342.261075 174.752392 
L 343.078849 159.94292 
L 343.326083 158.552276 
L 343.383137 158.533046 
L 343.421173 158.584303 
L 343.554299 159.162617 
L 343.782515 161.508637 
L 344.162875 168.289327 
L 344.980649 183.098799 
L 345.227883 184.489443 
L 345.284937 184.508673 
L 345.322973 184.457416 
L 345.456099 183.879102 
L 345.684315 181.533082 
L 346.064675 174.752392 
L 346.882449 159.94292 
L 347.129683 158.552276 
L 347.186737 158.533046 
L 347.224773 158.584303 
L 347.357899 159.162617 
L 347.586115 161.508637 
L 347.966475 168.289327 
L 348.784249 183.098799 
L 349.031483 184.489443 
L 349.088537 184.508673 
L 349.126573 184.457416 
L 349.259699 183.879102 
L 349.487915 181.533082 
L 349.868275 174.752392 
L 350.686049 159.94292 
L 350.933283 158.552276 
L 350.990337 158.533046 
L 351.028373 158.584303 
L 351.161499 159.162617 
L 351.389715 161.508637 
L 351.770075 168.289327 
L 352.587849 183.098799 
L 352.835083 184.489443 
L 352.892137 184.508673 
L 352.930173 184.457416 
L 353.063299 183.879102 
L 353.291515 181.533082 
L 353.671875 174.752392 
L 354.489649 159.94292 
L 354.736883 158.552276 
L 354.793937 158.533046 
L 354.831973 158.584303 
L 354.965099 159.162617 
L 355.193315 161.508637 
L 355.573675 168.289327 
L 356.391449 183.098799 
L 356.638683 184.489443 
L 356.695737 184.508673 
L 356.733773 184.457416 
L 356.866899 183.879102 
L 357.095115 181.533082 
L 357.475475 174.752392 
L 358.293249 159.94292 
L 358.540483 158.552276 
L 358.597537 158.533046 
L 358.635573 158.584303 
L 358.768699 159.162617 
L 358.996915 161.508637 
L 359.377275 168.289327 
L 360.195049 183.098799 
L 360.442283 184.489443 
L 360.499337 184.508673 
L 360.537373 184.457416 
L 360.670499 183.879102 
L 360.898715 181.533082 
L 361.279075 174.752392 
L 362.096849 159.94292 
L 362.344083 158.552276 
L 362.401137 158.533046 
L 362.439173 158.584303 
L 362.572299 159.162617 
L 362.800515 161.508637 
L 363.180875 168.289327 
L 363.998649 183.098799 
L 364.245883 184.489443 
L 364.302937 184.508673 
L 364.340973 184.457416 
L 364.474099 183.879102 
L 364.702315 181.533082 
L 365.082675 174.752392 
L 365.900449 159.94292 
L 366.147683 158.552276 
L 366.204737 158.533046 
L 366.242773 158.584303 
L 366.375899 159.162617 
L 366.604115 161.508637 
L 366.984475 168.289327 
L 367.802249 183.098799 
L 368.049483 184.489443 
L 368.106537 184.508673 
L 368.144573 184.457416 
L 368.277699 183.879102 
L 368.505915 181.533082 
L 368.886275 174.752392 
L 369.704049 159.94292 
L 369.951283 158.552276 
L 370.008337 158.533046 
L 370.046373 158.584303 
L 370.179499 159.162617 
L 370.407715 161.508637 
L 370.788075 168.289327 
L 371.605849 183.098799 
L 371.853083 184.489443 
L 371.910137 184.508673 
L 371.948173 184.457416 
L 372.081299 183.879102 
L 372.309515 181.533082 
L 372.689875 174.752392 
L 373.507649 159.94292 
L 373.754883 158.552276 
L 373.811937 158.533046 
L 373.849973 158.584303 
L 373.983099 159.162617 
L 374.211315 161.508637 
L 374.591675 168.289327 
L 375.409449 183.098799 
L 375.656683 184.489443 
L 375.713737 184.508673 
L 375.751773 184.457416 
L 375.884899 183.879102 
L 376.113115 181.533082 
L 376.493475 174.752392 
L 377.311249 159.94292 
L 377.558483 158.552276 
L 377.615537 158.533046 
L 377.653573 158.584303 
L 377.786699 159.162617 
L 378.014915 161.508637 
L 378.395275 168.289327 
L 379.213049 183.098799 
L 379.460283 184.489443 
L 379.517337 184.508673 
L 379.555373 184.457416 
L 379.688499 183.879102 
L 379.916715 181.533082 
L 380.297075 174.752392 
L 381.114849 159.94292 
L 381.362083 158.552276 
L 381.419137 158.533046 
L 381.457173 158.584303 
L 381.590299 159.162617 
L 381.818515 161.508637 
L 382.198875 168.289327 
L 383.016649 183.098799 
L 383.263883 184.489443 
L 383.320937 184.508673 
L 383.358973 184.457416 
L 383.492099 183.879102 
L 383.720315 181.533082 
L 384.100675 174.752392 
L 384.918449 159.94292 
L 385.165683 158.552276 
L 385.222737 158.533046 
L 385.260773 158.584303 
L 385.393899 159.162617 
L 385.622115 161.508637 
L 386.002475 168.289327 
L 386.820249 183.098799 
L 387.067483 184.489443 
L 387.124537 184.508673 
L 387.162573 184.457416 
L 387.295699 183.879102 
L 387.523915 181.533082 
L 387.904275 174.752392 
L 388.722049 159.94292 
L 388.969283 158.552276 
L 389.026337 158.533046 
L 389.064373 158.584303 
L 389.197499 159.162617 
L 389.425715 161.508637 
L 389.806075 168.289327 
L 390.623849 183.098799 
L 390.871083 184.489443 
L 390.928137 184.508673 
L 390.966173 184.457416 
L 391.099299 183.879102 
L 391.327515 181.533082 
L 391.707875 174.752392 
L 392.525649 159.94292 
L 392.772883 158.552276 
L 392.829937 158.533046 
L 392.867973 158.584303 
L 393.001099 159.162617 
L 393.229315 161.508637 
L 393.609675 168.289327 
L 394.427449 183.098799 
L 394.674683 184.489443 
L 394.731737 184.508673 
L 394.769773 184.457416 
L 394.902899 183.879102 
L 395.131115 181.533082 
L 395.511475 174.752392 
L 396.329249 159.94292 
L 396.576483 158.552276 
L 396.633537 158.533046 
L 396.671573 158.584303 
L 396.804699 159.162617 
L 397.032915 161.508637 
L 397.413275 168.289327 
L 398.231049 183.098799 
L 398.478283 184.489443 
L 398.535337 184.508673 
L 398.573373 184.457416 
L 398.706499 183.879102 
L 398.934715 181.533082 
L 399.315075 174.752392 
L 400.132849 159.94292 
L 400.380083 158.552276 
L 400.437137 158.533046 
L 400.475173 158.584303 
L 400.608299 159.162617 
L 400.836515 161.508637 
L 401.216875 168.289327 
L 402.034649 183.098799 
L 402.281883 184.489443 
L 402.338937 184.508673 
L 402.376973 184.457416 
L 402.510099 183.879102 
L 402.738315 181.533082 
L 403.118675 174.752392 
L 403.936449 159.94292 
L 404.183683 158.552276 
L 404.221719 158.526634 
L 404.221719 158.526634 
" clip-path="url(#pea063e2550)" style="fill: none; stroke: #9aa0a6; stroke-width: 0.5; stroke-linecap: square"/>
   </g>
   <g id="line2d_21">
    <path d="M 23.861719 171.520859 
L 119.275025 171.410408 
L 214.022701 139.041794 
L 214.041719 171.520859 
L 214.136809 171.488374 
L 309.112701 139.041794 
L 309.226809 158.526634 
L 404.221719 158.526634 
L 404.221719 158.526634 
" clip-path="url(#pea063e2550)" style="fill: none; stroke: #d95319; stroke-linecap: square"/>
   </g>
   <g id="line2d_22">
    <path d="M 23.861719 171.520859 
L 119.275025 171.63131 
L 214.022701 203.999925 
L 214.041719 171.520859 
L 214.136809 171.553345 
L 309.112701 203.999925 
L 309.226809 184.515084 
L 404.221719 184.515084 
L 404.221719 184.515084 
" clip-path="url(#pea063e2550)" style="fill: none; stroke: #d95319; stroke-linecap: square"/>
   </g>
   <g id="patch_6">
    <path d="M 23.861719 212.127812 
L 23.861719 130.913906 
" style="fill: none; stroke: #000000; stroke-width: 0.9; stroke-linejoin: miter; stroke-linecap: square"/>
   </g>
   <g id="patch_7">
    <path d="M 23.861719 212.127812 
L 404.221719 212.127812 
" style="fill: none; stroke: #000000; stroke-width: 0.9; stroke-linejoin: miter; stroke-linecap: square"/>
   </g>
   <g id="text_8">
    <text style="font-size: 12px; font-family: 'Helvetica', 'Arial', 'DejaVu Sans', sans-serif; text-anchor: middle" x="214.041719" y="124.913906" transform="rotate(-0 214.041719 124.913906)">AM</text>
   </g>
  </g>
  <g id="axes_3">
   <g id="patch_8">
    <path d="M 23.861719 323.721719 
L 404.221719 323.721719 
L 404.221719 242.507812 
L 23.861719 242.507812 
z
" style="fill: #ffffff"/>
   </g>
   <g id="matplotlib.axis_5">
    <g id="xtick_13">
     <g id="line2d_23">
      <g>
       <use xlink:href="#me9169eca2a" x="23.861719" y="323.721719" style="stroke: #000000; stroke-width: 0.8"/>
      </g>
     </g>
     <g id="text_9">
      <text style="font-size: 11px; font-family: 'Helvetica', 'Arial', 'DejaVu Sans', sans-serif; text-anchor: middle" x="23.861719" y="338.971719" transform="rotate(-0 23.861719 338.971719)">0.0</text>
     </g>
    </g>
    <g id="xtick_14">
     <g id="line2d_24">
      <g>
       <use xlink:href="#me9169eca2a" x="99.933719" y="323.721719" style="stroke: #000000; stroke-width: 0.8"/>
      </g>
     </g>
     <g id="text_10">
      <text style="font-size: 11px; font-family: 'Helvetica', 'Arial', 'DejaVu Sans', sans-serif; text-anchor: middle" x="99.933719" y="338.971719" transform="rotate(-0 99.933719 338.971719)">0.2</text>
     </g>
    </g>
    <g id="xtick_15">
     <g id="line2d_25">
      <g>
       <use xlink:href="#me9169eca2a" x="176.005719" y="323.721719" style="stroke: #000000; stroke-width: 0.8"/>
      </g>
     </g>
     <g id="text_11">
      <text style="font-size: 11px; font-family: 'Helvetica', 'Arial', 'DejaVu Sans', sans-serif; text-anchor: middle" x="176.005719" y="338.971719" transform="rotate(-0 176.005719 338.971719)">0.4</text>
     </g>
    </g>
    <g id="xtick_16">
     <g id="line2d_26">
      <g>
       <use xlink:href="#me9169eca2a" x="252.077719" y="323.721719" style="stroke: #000000; stroke-width: 0.8"/>
      </g>
     </g>
     <g id="text_12">
      <text style="font-size: 11px; font-family: 'Helvetica', 'Arial', 'DejaVu Sans', sans-serif; text-anchor: middle" x="252.077719" y="338.971719" transform="rotate(-0 252.077719 338.971719)">0.6</text>
     </g>
    </g>
    <g id="xtick_17">
     <g id="line2d_27">
      <g>
       <use xlink:href="#me9169eca2a" x="328.149719" y="323.721719" style="stroke: #000000; stroke-width: 0.8"/>
      </g>
     </g>
     <g id="text_13">
      <text style="font-size: 11px; font-family: 'Helvetica', 'Arial', 'DejaVu Sans', sans-serif; text-anchor: middle" x="328.149719" y="338.971719" transform="rotate(-0 328.149719 338.971719)">0.8</text>
     </g>
    </g>
    <g id="xtick_18">
     <g id="line2d_28">
      <g>
       <use xlink:href="#me9169eca2a" x="404.221719" y="323.721719" style="stroke: #000000; stroke-width: 0.8"/>
      </g>
     </g>
     <g id="text_14">
      <text style="font-size: 11px; font-family: 'Helvetica', 'Arial', 'DejaVu Sans', sans-serif; text-anchor: middle" x="404.221719" y="338.971719" transform="rotate(-0 404.221719 338.971719)">1.0</text>
     </g>
    </g>
    <g id="text_15">
     <!-- $t$ -->
     <g transform="translate(211.841719 353.090859)">
      <text>
       <tspan x="0" y="-0.28125" style="font-style: oblique; font-size: 11px; font-family: 'DejaVu Sans'">t</tspan>
      </text>
     </g>
    </g>
   </g>
   <g id="matplotlib.axis_6">
    <g id="ytick_7">
     <g id="line2d_29">
      <g>
       <use xlink:href="#m965c486e25" x="23.861719" y="315.600328" style="stroke: #000000; stroke-width: 0.8"/>
      </g>
     </g>
     <g id="text_16">
      <text style="font-size: 11px; font-family: 'Helvetica', 'Arial', 'DejaVu Sans', sans-serif; text-anchor: end" x="16.861719" y="319.725328" transform="rotate(-0 16.861719 319.725328)">−1</text>
     </g>
    </g>
    <g id="ytick_8">
     <g id="line2d_30">
      <g>
       <use xlink:href="#m965c486e25" x="23.861719" y="283.114766" style="stroke: #000000; stroke-width: 0.8"/>
      </g>
     </g>
     <g id="text_17">
      <text style="font-size: 11px; font-family: 'Helvetica', 'Arial', 'DejaVu Sans', sans-serif; text-anchor: end" x="16.861719" y="287.239766" transform="rotate(-0 16.861719 287.239766)">0</text>
     </g>
    </g>
    <g id="ytick_9">
     <g id="line2d_31">
      <g>
       <use xlink:href="#m965c486e25" x="23.861719" y="250.629203" style="stroke: #000000; stroke-width: 0.8"/>
      </g>
     </g>
     <g id="text_18">
      <text style="font-size: 11px; font-family: 'Helvetica', 'Arial', 'DejaVu Sans', sans-serif; text-anchor: end" x="16.861719" y="254.754203" transform="rotate(-0 16.861719 254.754203)">1</text>
     </g>
    </g>
   </g>
   <g id="line2d_32">
    <path d="M 23.861719 250.629203 
L 23.994845 250.754805 
L 24.185025 251.367661 
L 24.470295 253.220516 
L 24.869673 257.571744 
L 25.421195 266.402908 
L 26.391113 286.375072 
L 27.418085 305.940745 
L 27.969607 312.68007 
L 28.349967 315.098892 
L 28.597201 315.597763 
L 28.730327 315.508033 
L 28.901489 315.02492 
L 29.167741 313.466967 
L 29.529083 309.867685 
L 30.042569 302.2093 
L 30.841325 286.375072 
L 32.172585 260.288786 
L 32.724107 253.549461 
L 33.104467 251.130639 
L 33.351701 250.631768 
L 33.484827 250.721498 
L 33.655989 251.204612 
L 33.922241 252.762564 
L 34.283583 256.361846 
L 34.797069 264.020231 
L 35.595825 279.854459 
L 36.927085 305.940745 
L 37.478607 312.68007 
L 37.858967 315.098892 
L 38.106201 315.597763 
L 38.239327 315.508033 
L 38.410489 315.02492 
L 38.676741 313.466967 
L 39.038083 309.867685 
L 39.551569 302.2093 
L 40.350325 286.375072 
L 41.681585 260.288786 
L 42.233107 253.549461 
L 42.613467 251.130639 
L 42.860701 250.631768 
L 42.993827 250.721498 
L 43.164989 251.204612 
L 43.431241 252.762564 
L 43.792583 256.361846 
L 44.306069 264.020231 
L 45.104825 279.854459 
L 46.436085 305.940745 
L 46.987607 312.68007 
L 47.367967 315.098892 
L 47.615201 315.597763 
L 47.748327 315.508033 
L 47.919489 315.02492 
L 48.185741 313.466967 
L 48.547083 309.867685 
L 49.060569 302.2093 
L 49.859325 286.375072 
L 51.190585 260.288786 
L 51.742107 253.549461 
L 52.122467 251.130639 
L 52.369701 250.631768 
L 52.502827 250.721498 
L 52.673989 251.204612 
L 52.940241 252.762564 
L 53.301583 256.361846 
L 53.815069 264.020231 
L 54.613825 279.854459 
L 55.945085 305.940745 
L 56.496607 312.68007 
L 56.876967 315.098892 
L 57.124201 315.597763 
L 57.257327 315.508033 
L 57.428489 315.02492 
L 57.694741 313.466967 
L 58.056083 309.867685 
L 58.569569 302.2093 
L 59.368325 286.375072 
L 60.699585 260.288786 
L 61.251107 253.549461 
L 61.631467 251.130639 
L 61.878701 250.631768 
L 62.011827 250.721498 
L 62.182989 251.204612 
L 62.449241 252.762564 
L 62.810583 256.361846 
L 63.324069 264.020231 
L 64.122825 279.854459 
L 65.454085 305.940745 
L 66.005607 312.68007 
L 66.385967 315.098892 
L 66.633201 315.597763 
L 66.766327 315.508033 
L 66.937489 315.02492 
L 67.203741 313.466967 
L 67.565083 309.867685 
L 68.078569 302.2093 
L 68.877325 286.375072 
L 70.208585 260.288786 
L 70.760107 253.549461 
L 71.140467 251.130639 
L 71.387701 250.631768 
L 71.520827 250.721498 
L 71.691989 251.204612 
L 71.958241 252.762564 
L 72.319583 256.361846 
L 72.833069 264.020231 
L 73.631825 279.854459 
L 74.963085 305.940745 
L 75.514607 312.68007 
L 75.894967 315.098892 
L 76.142201 315.597763 
L 76.275327 315.508033 
L 76.446489 315.02492 
L 76.712741 313.466967 
L 77.074083 309.867685 
L 77.587569 302.2093 
L 78.386325 286.375072 
L 79.717585 260.288786 
L 80.269107 253.549461 
L 80.649467 251.130639 
L 80.896701 250.631768 
L 81.029827 250.721498 
L 81.200989 251.204612 
L 81.467241 252.762564 
L 81.828583 256.361846 
L 82.342069 264.020231 
L 83.140825 279.854459 
L 84.472085 305.940745 
L 85.023607 312.68007 
L 85.403967 315.098892 
L 85.651201 315.597763 
L 85.784327 315.508033 
L 85.955489 315.02492 
L 86.221741 313.466967 
L 86.583083 309.867685 
L 87.096569 302.2093 
L 87.895325 286.375072 
L 89.226585 260.288786 
L 89.778107 253.549461 
L 90.158467 251.130639 
L 90.405701 250.631768 
L 90.538827 250.721498 
L 90.709989 251.204612 
L 90.976241 252.762564 
L 91.337583 256.361846 
L 91.851069 264.020231 
L 92.649825 279.854459 
L 93.981085 305.940745 
L 94.532607 312.68007 
L 94.912967 315.098892 
L 95.160201 315.597763 
L 95.293327 315.508033 
L 95.464489 315.02492 
L 95.730741 313.466967 
L 96.092083 309.867685 
L 96.605569 302.2093 
L 97.404325 286.375072 
L 98.735585 260.288786 
L 99.287107 253.549461 
L 99.667467 251.130639 
L 99.914701 250.631768 
L 100.047827 250.721498 
L 100.218989 251.204612 
L 100.485241 252.762564 
L 100.846583 256.361846 
L 101.360069 264.020231 
L 102.158825 279.854459 
L 103.490085 305.940745 
L 104.041607 312.68007 
L 104.421967 315.098892 
L 104.669201 315.597763 
L 104.802327 315.508033 
L 104.973489 315.02492 
L 105.239741 313.466967 
L 105.601083 309.867685 
L 106.114569 302.2093 
L 106.913325 286.375072 
L 108.244585 260.288786 
L 108.796107 253.549461 
L 109.176467 251.130639 
L 109.423701 250.631768 
L 109.556827 250.721498 
L 109.727989 251.204612 
L 109.994241 252.762564 
L 110.355583 256.361846 
L 110.869069 264.020231 
L 111.667825 279.854459 
L 112.999085 305.940745 
L 113.550607 312.68007 
L 113.930967 315.098892 
L 114.178201 315.597763 
L 114.311327 315.508033 
L 114.482489 315.02492 
L 114.748741 313.466967 
L 115.110083 309.867685 
L 115.623569 302.2093 
L 116.422325 286.375072 
L 117.753585 260.288786 
L 118.305107 253.549461 
L 118.685467 251.130639 
L 118.932701 250.631768 
L 119.065827 250.721567 
L 119.236989 251.205688 
L 119.503241 252.770219 
L 119.864583 256.395236 
L 120.378069 264.136525 
L 121.176825 280.20214 
L 122.489067 306.275894 
L 123.021571 312.824189 
L 123.401931 315.195396 
L 123.630147 315.600207 
L 123.744255 315.508984 
L 123.915417 315.00505 
L 124.181669 313.359991 
L 124.543011 309.538824 
L 125.056497 301.394592 
L 125.874271 284.224515 
L 127.053387 260.189585 
L 127.585891 253.402041 
L 127.947233 251.062843 
L 128.175449 250.629432 
L 128.289557 250.723587 
L 128.460719 251.253404 
L 128.726971 252.988059 
L 129.088313 257.015872 
L 129.601799 265.570481 
L 130.457609 284.288796 
L 131.522617 306.317451 
L 132.036103 312.942143 
L 132.397445 315.24628 
L 132.606643 315.600204 
L 132.720751 315.483152 
L 132.891913 314.89773 
L 133.158165 313.028859 
L 133.538525 308.462875 
L 134.071029 298.942803 
L 135.098001 275.412107 
L 135.934793 258.655269 
L 136.429261 252.649819 
L 136.752567 250.848136 
L 136.923729 250.630903 
L 136.942747 250.638779 
L 137.075873 250.873382 
L 137.285071 251.871797 
L 137.589359 254.652368 
L 138.007755 260.802656 
L 138.635349 273.836803 
L 140.251879 309.006933 
L 140.708311 314.109239 
L 141.012599 315.511083 
L 141.145725 315.588822 
L 141.164743 315.573006 
L 141.297869 315.27399 
L 141.507067 314.144699 
L 141.811355 311.117875 
L 142.248769 304.200323 
L 142.914399 289.51243 
L 144.302713 258.331721 
L 144.778163 252.445993 
L 145.082451 250.79354 
L 145.234595 250.634019 
L 145.253613 250.64579 
L 145.386739 250.925509 
L 145.595937 252.056311 
L 145.900225 255.151635 
L 146.337639 262.282134 
L 147.003269 277.419623 
L 148.315511 307.615974 
L 148.790961 313.729284 
L 149.095249 315.436885 
L 149.247393 315.593737 
L 149.266411 315.580189 
L 149.399537 315.279107 
L 149.608735 314.084073 
L 149.913023 310.834782 
L 150.350437 303.390243 
L 151.035085 287.237692 
L 152.233219 259.044552 
L 152.708669 252.631577 
L 153.012957 250.815214 
L 153.165101 250.633373 
L 153.184119 250.645233 
L 153.298227 250.877858 
L 153.488407 251.875714 
L 153.773677 254.753321 
L 154.192073 261.662489 
L 154.819667 276.352219 
L 156.150927 308.176779 
L 156.607359 314.013524 
L 156.892629 315.500236 
L 157.006737 315.59632 
L 157.044773 315.564254 
L 157.177899 315.199978 
L 157.387097 313.845234 
L 157.691385 310.247245 
L 158.128799 302.134915 
L 158.870501 283.374981 
L 159.878455 259.034205 
L 160.334887 252.628482 
L 160.639175 250.781003 
L 160.772301 250.633052 
L 160.791319 250.645233 
L 160.905427 250.89321 
L 161.095607 251.96689 
L 161.380877 255.067232 
L 161.799273 262.486604 
L 162.445885 278.597358 
L 163.625001 307.846799 
L 164.081433 314.003497 
L 164.366703 315.520182 
L 164.480811 315.587889 
L 164.499829 315.568884 
L 164.632955 315.193949 
L 164.842153 313.760476 
L 165.146441 309.924856 
L 165.583855 301.283432 
L 166.363593 280.488432 
L 167.238421 258.907596 
L 167.694853 252.405787 
L 167.980123 250.741538 
L 168.094231 250.633645 
L 168.132267 250.669463 
L 168.265393 251.076991 
L 168.474591 252.591566 
L 168.797897 256.918248 
L 169.254329 266.491054 
L 170.167193 291.692958 
L 170.889877 308.694963 
L 171.308273 314.216351 
L 171.574525 315.548817 
L 171.669615 315.587355 
L 171.688633 315.567174 
L 171.821759 315.166152 
L 172.030957 313.630404 
L 172.335245 309.526753 
L 172.791677 299.858096 
L 173.704541 274.232036 
L 174.408207 257.460905 
L 174.826603 251.920196 
L 175.092855 250.658087 
L 175.168927 250.640741 
L 175.206963 250.689774 
L 175.340089 251.163418 
L 175.568305 253.048879 
L 175.891611 257.890743 
L 176.367061 268.785553 
L 178.116717 312.662293 
L 178.440023 315.319239 
L 178.592167 315.599224 
L 178.611185 315.58957 
L 178.725293 315.323134 
L 178.915473 314.092804 
L 179.200743 310.485335 
L 179.619139 301.875457 
L 180.341823 281.381039 
L 181.216651 258.361653 
L 181.635047 252.222189 
L 181.901299 250.699706 
L 181.996389 250.63776 
L 182.034425 250.684781 
L 182.167551 251.171517 
L 182.376749 252.931398 
L 182.700055 257.888621 
L 183.175505 269.193785 
L 184.849089 312.575854 
L 185.172395 315.33228 
L 185.324539 315.59628 
L 185.343557 315.581734 
L 185.457665 315.272604 
L 185.647845 313.922096 
L 185.933115 310.033264 
L 186.351511 300.866061 
L 187.150267 277.143004 
L 187.891969 257.752078 
L 188.310365 251.830863 
L 188.557599 250.648953 
L 188.633671 250.653155 
L 188.652689 250.681455 
L 188.785815 251.183691 
L 188.995013 253.029206 
L 189.318319 258.247613 
L 189.793769 270.110826 
L 191.353245 312.120168 
L 191.676551 315.227738 
L 191.847713 315.596365 
L 191.866731 315.581322 
L 191.980839 315.255798 
L 192.171019 313.82816 
L 192.456289 309.718834 
L 192.874685 300.071693 
L 193.768531 272.583533 
L 194.415143 256.347034 
L 194.795503 251.455888 
L 195.023719 250.629203 
L 195.118809 250.773435 
L 195.270953 251.600704 
L 195.518187 254.461161 
L 195.879529 261.67046 
L 196.469087 278.78458 
L 197.496059 308.417959 
L 197.895437 314.358412 
L 198.142671 315.586535 
L 198.218743 315.563995 
L 198.237761 315.52871 
L 198.370887 314.951116 
L 198.599103 312.644614 
L 198.922409 306.760324 
L 199.435895 292.622341 
L 200.710101 255.887682 
L 201.071443 251.340201 
L 201.280641 250.629383 
L 201.356713 250.735212 
L 201.508857 251.528456 
L 201.737073 254.130742 
L 202.079397 260.907407 
L 202.630919 277.027578 
L 203.714945 309.044621 
L 204.095305 314.551172 
L 204.323521 315.594127 
L 204.399593 315.543912 
L 204.532719 314.976127 
L 204.741917 312.876409 
L 205.065223 306.956063 
L 205.559691 293.082572 
L 206.833897 255.555282 
L 207.176221 251.281988 
L 207.366401 250.629282 
L 207.385419 250.634275 
L 207.480509 250.851464 
L 207.651671 252.042097 
L 207.917923 255.847184 
L 208.317301 265.377683 
L 209.116057 291.516429 
L 209.781687 309.783113 
L 210.143029 314.772962 
L 210.352227 315.599922 
L 210.428299 315.507841 
L 210.561425 314.842879 
L 210.789641 312.251223 
L 211.131965 305.251861 
L 211.683487 288.413834 
L 212.710459 257.061688 
L 213.090819 251.511952 
L 213.300017 250.630763 
L 213.376089 250.712549 
L 213.509215 251.371908 
L 213.737431 253.98977 
L 214.441097 266.810722 
L 215.468069 287.928704 
L 216.437987 305.99739 
L 216.989509 312.626713 
L 217.369869 315.045647 
L 217.617103 315.589847 
L 217.750229 315.54098 
L 217.921391 315.128004 
L 218.168625 313.849616 
L 218.529967 310.607246 
L 219.024435 303.854145 
L 219.766137 290.191336 
L 221.382667 259.750476 
L 221.934189 253.478252 
L 222.333567 251.108978 
L 222.580801 250.634321 
L 222.713927 250.698308 
L 222.885089 251.107576 
L 223.151341 252.460516 
L 223.512683 255.6181 
L 224.007151 262.103038 
L 224.748853 275.185066 
L 226.479491 306.642938 
L 227.031013 312.68547 
L 227.430391 315.040985 
L 227.696643 315.58973 
L 227.848787 315.529785 
L 228.038967 315.074929 
L 228.305219 313.744095 
L 228.685579 310.514487 
L 229.199065 303.982791 
L 229.959785 291.034568 
L 231.747477 259.710892 
L 232.318017 253.64021 
L 232.736413 251.220442 
L 233.002665 250.651342 
L 233.154809 250.671493 
L 233.325971 250.993288 
L 233.573205 252.00788 
L 233.934547 254.609235 
L 234.409997 259.856436 
L 235.075627 269.927279 
L 237.547967 310.030236 
L 238.042435 313.965569 
L 238.403777 315.37527 
L 238.631993 315.599082 
L 238.784137 315.459975 
L 238.993335 314.895792 
L 239.297623 313.32456 
L 239.716019 309.802388 
L 240.286559 302.811011 
L 241.123351 289.421752 
L 242.873007 261.012182 
L 243.500601 254.409931 
L 243.957033 251.595509 
L 244.280339 250.716008 
L 244.470519 250.641476 
L 244.641681 250.854735 
L 244.888915 251.625299 
L 245.231239 253.56428 
L 245.687671 257.604946 
L 246.315265 265.433081 
L 247.304201 281.074955 
L 248.768587 303.757371 
L 249.453235 311.075883 
L 249.947703 314.299433 
L 250.309045 315.432059 
L 250.537261 315.597621 
L 250.708423 315.441854 
L 250.936639 314.865112 
L 251.259945 313.345761 
L 251.697359 310.060143 
L 252.267899 303.921937 
L 253.104691 292.175891 
L 255.310779 260.034217 
L 255.957391 254.153904 
L 256.432841 251.583882 
L 256.775165 250.733407 
L 256.984363 250.635186 
L 257.155525 250.792483 
L 257.402759 251.39275 
L 257.745083 252.931124 
L 258.201515 256.179596 
L 258.791073 262.141338 
L 259.627865 273.109934 
L 262.062169 306.432402 
L 262.727799 312.075813 
L 263.222267 314.602476 
L 263.583609 315.476902 
L 263.811825 315.596969 
L 264.002005 315.441715 
L 264.249239 314.897144 
L 264.591563 313.520868 
L 265.047995 310.626638 
L 265.637553 305.303682 
L 266.455327 295.653295 
L 269.460171 257.96099 
L 270.087765 253.484357 
L 270.563215 251.44408 
L 270.924557 250.71974 
L 271.152773 250.635461 
L 271.361971 250.811106 
L 271.628223 251.379696 
L 271.989565 252.751584 
L 272.465015 255.54795 
L 273.073591 260.58443 
L 273.910383 269.586144 
L 275.717093 292.323655 
L 276.820137 304.490452 
L 277.580857 310.661788 
L 278.170415 313.820805 
L 278.626847 315.193096 
L 278.950153 315.579525 
L 279.178369 315.558815 
L 279.425603 315.264797 
L 279.748909 314.46255 
L 280.167305 312.748708 
L 280.699809 309.545665 
L 281.403475 303.797534 
L 282.373393 293.797758 
L 285.454309 260.599893 
L 286.215029 255.244741 
L 286.823605 252.37181 
L 287.299055 251.073851 
L 287.641379 250.667586 
L 287.907631 250.657924 
L 288.173883 250.913584 
L 288.497189 251.57368 
L 288.915585 252.976951 
L 289.448089 255.601523 
L 290.132737 260.198173 
L 291.026583 267.839353 
L 292.509987 282.786252 
L 294.297679 300.231775 
L 295.267597 307.643144 
L 296.028317 311.899004 
L 296.636893 314.174357 
L 297.112343 315.214523 
L 297.473685 315.565729 
L 297.758955 315.575884 
L 298.044225 315.353325 
L 298.405567 314.744523 
L 298.861999 313.47242 
L 299.432539 311.142467 
L 300.136205 307.257307 
L 301.049069 300.856679 
L 302.361311 289.895578 
L 305.175975 266.059905 
L 306.240983 259.089219 
L 307.077775 254.95593 
L 307.781441 252.515656 
L 308.351981 251.26682 
L 308.808413 250.744467 
L 309.150737 250.634052 
L 309.264845 250.831024 
L 309.455025 251.794079 
L 309.740295 254.672068 
L 310.139673 261.289345 
L 310.748249 275.580789 
L 312.117545 308.49936 
L 312.554959 314.026102 
L 312.840229 315.50415 
L 312.954337 315.595479 
L 312.992373 315.561821 
L 313.125499 315.192355 
L 313.334697 313.832314 
L 313.658003 309.954228 
L 314.114435 301.332133 
L 314.913191 281.024055 
L 315.845073 259.053121 
L 316.320523 252.532477 
L 316.624811 250.768613 
L 316.757937 250.634052 
L 316.776955 250.646876 
L 316.891063 250.891797 
L 317.081243 251.93336 
L 317.366513 254.922099 
L 317.784909 262.055909 
L 318.431521 277.579827 
L 319.667691 307.516261 
L 320.124123 313.697054 
L 320.428411 315.460918 
L 320.561537 315.595479 
L 320.580555 315.582656 
L 320.694663 315.337734 
L 320.884843 314.296171 
L 321.170113 311.307432 
L 321.588509 304.173623 
L 322.235121 288.649704 
L 323.471291 258.71327 
L 323.927723 252.532477 
L 324.232011 250.768613 
L 324.365137 250.634052 
L 324.384155 250.646876 
L 324.498263 250.891797 
L 324.688443 251.93336 
L 324.973713 254.922099 
L 325.392109 262.055909 
L 326.038721 277.579827 
L 327.274891 307.516261 
L 327.731323 313.697054 
L 328.035611 315.460918 
L 328.168737 315.595479 
L 328.187755 315.582656 
L 328.301863 315.337734 
L 328.492043 314.296171 
L 328.777313 311.307432 
L 329.195709 304.173623 
L 329.842321 288.649704 
L 331.078491 258.71327 
L 331.534923 252.532477 
L 331.839211 250.768613 
L 331.972337 250.634052 
L 331.991355 250.646876 
L 332.105463 250.891797 
L 332.295643 251.93336 
L 332.580913 254.922099 
L 332.999309 262.055909 
L 333.645921 277.579827 
L 334.882091 307.516261 
L 335.338523 313.697054 
L 335.642811 315.460918 
L 335.775937 315.595479 
L 335.794955 315.582656 
L 335.909063 315.337734 
L 336.099243 314.296171 
L 336.384513 311.307432 
L 336.802909 304.173623 
L 337.449521 288.649704 
L 338.685691 258.71327 
L 339.142123 252.532477 
L 339.446411 250.768613 
L 339.579537 250.634052 
L 339.598555 250.646876 
L 339.712663 250.891797 
L 339.902843 251.93336 
L 340.188113 254.922099 
L 340.606509 262.055909 
L 341.253121 277.579827 
L 342.489291 307.516261 
L 342.945723 313.697054 
L 343.250011 315.460918 
L 343.383137 315.595479 
L 343.402155 315.582656 
L 343.516263 315.337734 
L 343.706443 314.296171 
L 343.991713 311.307432 
L 344.410109 304.173623 
L 345.056721 288.649704 
L 346.292891 258.71327 
L 346.749323 252.532477 
L 347.053611 250.768613 
L 347.186737 250.634052 
L 347.205755 250.646876 
L 347.319863 250.891797 
L 347.510043 251.93336 
L 347.795313 254.922099 
L 348.213709 262.055909 
L 348.860321 277.579827 
L 350.096491 307.516261 
L 350.552923 313.697054 
L 350.857211 315.460918 
L 350.990337 315.595479 
L 351.009355 315.582656 
L 351.123463 315.337734 
L 351.313643 314.296171 
L 351.598913 311.307432 
L 352.017309 304.173623 
L 352.663921 288.649704 
L 353.900091 258.71327 
L 354.356523 252.532477 
L 354.660811 250.768613 
L 354.793937 250.634052 
L 354.812955 250.646876 
L 354.927063 250.891797 
L 355.117243 251.93336 
L 355.402513 254.922099 
L 355.820909 262.055909 
L 356.467521 277.579827 
L 357.703691 307.516261 
L 358.160123 313.697054 
L 358.464411 315.460918 
L 358.597537 315.595479 
L 358.616555 315.582656 
L 358.730663 315.337734 
L 358.920843 314.296171 
L 359.206113 311.307432 
L 359.624509 304.173623 
L 360.271121 288.649704 
L 361.507291 258.71327 
L 361.963723 252.532477 
L 362.268011 250.768613 
L 362.401137 250.634052 
L 362.420155 250.646876 
L 362.534263 250.891797 
L 362.724443 251.93336 
L 363.009713 254.922099 
L 363.428109 262.055909 
L 364.074721 277.579827 
L 365.310891 307.516261 
L 365.767323 313.697054 
L 366.071611 315.460918 
L 366.204737 315.595479 
L 366.223755 315.582656 
L 366.337863 315.337734 
L 366.528043 314.296171 
L 366.813313 311.307432 
L 367.231709 304.173623 
L 367.878321 288.649704 
L 369.114491 258.71327 
L 369.570923 252.532477 
L 369.875211 250.768613 
L 370.008337 250.634052 
L 370.027355 250.646876 
L 370.141463 250.891797 
L 370.331643 251.93336 
L 370.616913 254.922099 
L 371.035309 262.055909 
L 371.681921 277.579827 
L 372.918091 307.516261 
L 373.374523 313.697054 
L 373.678811 315.460918 
L 373.811937 315.595479 
L 373.830955 315.582656 
L 373.945063 315.337734 
L 374.135243 314.296171 
L 374.420513 311.307432 
L 374.838909 304.173623 
L 375.485521 288.649704 
L 376.721691 258.71327 
L 377.178123 252.532477 
L 377.482411 250.768613 
L 377.615537 250.634052 
L 377.634555 250.646876 
L 377.748663 250.891797 
L 377.938843 251.93336 
L 378.224113 254.922099 
L 378.642509 262.055909 
L 379.289121 277.579827 
L 380.525291 307.516261 
L 380.981723 313.697054 
L 381.286011 315.460918 
L 381.419137 315.595479 
L 381.438155 315.582656 
L 381.552263 315.337734 
L 381.742443 314.296171 
L 382.027713 311.307432 
L 382.446109 304.173623 
L 383.092721 288.649704 
L 384.328891 258.71327 
L 384.785323 252.532477 
L 385.089611 250.768613 
L 385.222737 250.634052 
L 385.241755 250.646876 
L 385.355863 250.891797 
L 385.546043 251.93336 
L 385.831313 254.922099 
L 386.249709 262.055909 
L 386.896321 277.579827 
L 388.132491 307.516261 
L 388.588923 313.697054 
L 388.893211 315.460918 
L 389.026337 315.595479 
L 389.045355 315.582656 
L 389.159463 315.337734 
L 389.349643 314.296171 
L 389.634913 311.307432 
L 390.053309 304.173623 
L 390.699921 288.649704 
L 391.936091 258.71327 
L 392.392523 252.532477 
L 392.696811 250.768613 
L 392.829937 250.634052 
L 392.848955 250.646876 
L 392.963063 250.891797 
L 393.153243 251.93336 
L 393.438513 254.922099 
L 393.856909 262.055909 
L 394.503521 277.579827 
L 395.739691 307.516261 
L 396.196123 313.697054 
L 396.500411 315.460918 
L 396.633537 315.595479 
L 396.652555 315.582656 
L 396.766663 315.337734 
L 396.956843 314.296171 
L 397.242113 311.307432 
L 397.660509 304.173623 
L 398.307121 288.649704 
L 399.543291 258.71327 
L 399.999723 252.532477 
L 400.304011 250.768613 
L 400.437137 250.634052 
L 400.456155 250.646876 
L 400.570263 250.891797 
L 400.760443 251.93336 
L 401.045713 254.922099 
L 401.464109 262.055909 
L 402.110721 277.579827 
L 403.346891 307.516261 
L 403.803323 313.697054 
L 404.107611 315.460918 
L 404.221719 315.600288 
L 404.221719 315.600288 
" clip-path="url(#p4c6386645c)" style="fill: none; stroke: #0072bd; stroke-width: 0.6; stroke-linecap: square"/>
   </g>
   <g id="patch_9">
    <path d="M 23.861719 323.721719 
L 23.861719 242.507812 
" style="fill: none; stroke: #000000; stroke-width: 0.9; stroke-linejoin: miter; stroke-linecap: square"/>
   </g>
   <g id="patch_10">
    <path d="M 23.861719 323.721719 
L 404.221719 323.721719 
" style="fill: none; stroke: #000000; stroke-width: 0.9; stroke-linejoin: miter; stroke-linecap: square"/>
   </g>
   <g id="text_19">
    <text style="font-size: 12px; font-family: 'Helvetica', 'Arial', 'DejaVu Sans', sans-serif; text-anchor: middle" x="214.041719" y="236.507812" transform="rotate(-0 214.041719 236.507812)">FM: constant amplitude, varying frequency</text>
   </g>
  </g>
 </g>
 <defs>
  <clipPath id="pe7aa7cbacd">
   <rect x="23.861719" y="19.32" width="380.36" height="81.213906"/>
  </clipPath>
  <clipPath id="pea063e2550">
   <rect x="23.861719" y="130.913906" width="380.36" height="81.213906"/>
  </clipPath>
  <clipPath id="p4c6386645c">
   <rect x="23.861719" y="242.507812" width="380.36" height="81.213906"/>
  </clipPath>
 </defs>
</svg>
